<?xml version="1.0" encoding="utf-8"?>
<!-- Generator: Adobe Illustrator 27.5.0, SVG Export Plug-In . SVG Version: 6.00 Build 0)  -->
<svg version="1.1" xmlns="http://www.w3.org/2000/svg" xmlns:xlink="http://www.w3.org/1999/xlink" x="0px" y="0px"
	 viewBox="0 0 500 500" style="enable-background:new 0 0 500 500;" xml:space="preserve">
<g id="BACKGROUND">
	<rect x="0" style="fill:#FFFFFF;" width="500" height="500"/>
</g>
<g id="OBJECTS">
	<g>
		<path style="fill:#BECFF4;" d="M90.37,322.053c-15.155-41.98-19.29-88.618-6.891-131.623
			c24.527-85.072,134.911-141.094,228.85-128.825c38.333,5.006,77.325,24.846,94.104,57.508
			c21.125,41.123-5.799,78.123-42.606,102.344c-31.074,20.447-69.44,30.408-98.457,53.615c-20.076,16.056-34.121,38.7-36.646,63.029
			c-2.393,23.062,19.835,54.476,4.906,75.09c-13.403,18.505-49.872,10.898-68.473,3.225c-21.991-9.072-39.75-32.06-52.031-49.951
			C103.591,352.573,95.982,337.6,90.37,322.053z"/>
		<path style="fill:#FFFFFF;" d="M318.897,78.193h-6.569h-75.751h-6.569h-75.752h-6.568h-82.32v220.342h82.32h6.568h75.752h6.569
			h75.751h6.569h82.319V78.193H318.897z M71.785,292.118V84.611h75.903v207.507H71.785z M154.256,292.118V84.611h75.752v207.507
			H154.256z M236.577,292.118V84.611h75.751v207.507H236.577z M394.799,292.118h-75.902V84.611h75.902V292.118z"/>
	</g>
	<g>
		<g>
			<g>
				<g>
					<rect x="210.403" y="275.523" style="fill:#8FA5CC;" width="221.154" height="117.039"/>
					<rect x="193.463" y="275.523" style="fill:#BECFF4;" width="203.508" height="117.039"/>
				</g>
				<g>
					<g>
						<rect x="297.244" y="280.657" style="fill:#8FA5CC;" width="92.904" height="105.644"/>
						
							<rect x="292.257" y="331.784" transform="matrix(6.123234e-17 -1 1 6.123234e-17 -26.0529 640.9041)" style="fill:#BECFF4;" width="30.338" height="3.388"/>
					</g>
					<g>
						<rect x="198.574" y="280.657" style="fill:#8FA5CC;" width="92.904" height="105.644"/>
						
							<rect x="265.153" y="331.784" transform="matrix(6.123234e-17 -1 1 6.123234e-17 -53.1569 613.8)" style="fill:#BECFF4;" width="30.338" height="3.388"/>
					</g>
				</g>
			</g>
			<g>
				<path style="fill:#8FA5CC;" d="M371.505,258.094c-11.855-10.446-11.254-31.296-11.254-31.296
					c7.1,6.045,10.835,12.675,12.769,18.445c0.499-7.505,2.769-13.048,2.769-13.048c2.593,6.024,3.345,11.376,3.221,15.802
					c2.739-5.029,6.456-8.007,6.456-8.007c0.43,9.055-2.826,14.865-5.561,18.104h5.6l-1.967,15.039h1.967l-1.617,2.39h-16.944
					l-1.617-2.39h1.967l-1.967-15.039H371.505z"/>
				<g>
					<polygon style="fill:#8FA5CC;" points="297.713,275.523 291.364,275.523 281.297,253.68 287.646,253.68 					"/>
					<g>
						<polygon style="fill:#8FA5CC;" points="283.63,275.523 248.626,275.523 259.29,235.689 294.294,235.689 						"/>
						<polygon style="fill:#BECFF4;" points="281.932,272.743 251.812,272.743 260.988,238.468 291.108,238.468 						"/>
						<polygon style="fill:#8FA5CC;" points="254.268,271.019 257.341,259.541 267.591,250.749 270.565,256.366 281.902,245.946 
							284.867,254.331 280.399,271.019 						"/>
					</g>
				</g>
			</g>
		</g>
		<g>
			<g>
				<path style="fill:#FFD26E;" d="M410.917,401.601c0.578-1.57,1.746-2.858,2.409-4.393c1.277-2.957,0.528-6.343-0.068-9.508
					c-0.596-3.165-0.935-6.729,0.955-9.337c1.513-2.089,4.143-3.087,5.849-5.022c2.145-2.432,2.502-5.905,2.853-9.129
					c0.351-3.224,0.94-6.723,3.35-8.892c2.325-2.092,5.876-2.475,8.034-4.74c1.924-2.02,2.317-5.105,4.104-7.247
					c1.423-1.707,3.563-2.621,5.643-3.402c2.212-0.831,4.568-1.592,6.899-1.209c2.332,0.384,4.581,2.286,4.548,4.649
					c-0.03,2.126-1.803,3.82-3.648,4.876c-1.845,1.057-3.932,1.78-5.446,3.272c-2.309,2.275-2.766,5.768-3.24,8.975
					c-0.474,3.206-1.299,6.728-3.972,8.562c-1.997,1.369-4.681,1.516-6.557,3.046c-2.437,1.987-2.708,5.563-2.63,8.706
					c0.077,3.144,0.203,6.618-1.806,9.038c-1.945,2.343-5.331,2.961-7.561,5.035c-2.476,2.302-3.136,5.795-4.88,8.577
					c-0.709,1.131-1.801,2.689-3.355,2.4C410.52,405.507,410.383,403.053,410.917,401.601z"/>
				<path style="fill:#D8AC55;" d="M409.967,403.175c-1.23-1.439-1.51-3.456-1.512-5.349c-0.002-1.893,0.218-3.817-0.219-5.659
					c-0.771-3.253-3.477-5.796-4.198-9.06c-1.058-4.792,2.398-9.416,2.741-14.312c0.35-4.989-2.553-10.044-1.11-14.833
					c0.698-2.317,2.35-4.256,3.037-6.576c1.331-4.496-1.199-9.204-1.195-13.892c0.003-3.328,1.356-6.635,3.686-9.01
					c2.33-2.376,5.61-3.793,8.937-3.86c3.854-0.079,7.982,1.99,9.21,5.645c1.239,3.687-0.709,7.66-2.97,10.826
					c-2.26,3.166-4.987,6.27-5.563,10.117c-0.608,4.059,1.29,8.452-0.41,12.188c-1.086,2.386-3.448,3.979-4.65,6.309
					c-2.526,4.897,0.849,10.805,0.245,16.282c-0.347,3.141-2,6.005-2.516,9.123c-0.672,4.059,1.214,7.157,1.595,10.999
					C415.386,405.244,411.585,405.066,409.967,403.175z"/>
				<path style="fill:#FFD26E;" d="M413.839,400.58c-0.553-1.105-1.505-1.947-2.304-2.889c-1.754-2.071-2.803-4.729-2.934-7.44
					c-0.13-2.675,0.574-5.526-0.603-7.931c-1.105-2.259-3.62-3.541-4.835-5.743c-2.084-3.78,0.337-8.761-1.407-12.709
					c-1.191-2.695-4.046-4.267-5.647-6.741c-1.649-2.549-1.794-5.743-2.167-8.756c-0.477-3.854-1.453-7.753-3.697-10.922
					c-2.244-3.169-5.951-5.501-9.828-5.286c-3.878,0.215-7.589,3.492-7.543,7.375c0.035,2.995,2.082,5.565,4.211,7.673
					c2.128,2.108,4.523,4.134,5.609,6.925c1.394,3.584,0.349,7.727,1.553,11.379c1.184,3.591,4.313,6.12,7.173,8.594
					c2.859,2.474,5.763,5.423,6.187,9.18c0.226,2.004-0.28,4.118,0.444,6c0.617,1.603,2.017,2.747,3.311,3.876
					c3.069,2.678,5.92,5.693,8.272,9.024c0.757,1.072,1.444,2.67,3.005,2.297C414.377,404.071,414.499,401.897,413.839,400.58z"/>
			</g>
			<g>
				<polygon style="fill:#2B4172;" points="430.904,436.848 392.216,436.848 386.842,395.755 436.278,395.755 				"/>
				<polygon points="432.316,438.453 390.804,438.453 386.842,432.598 436.278,432.598 				"/>
			</g>
		</g>
		<g>
			<g>
				<path style="fill:#FFD26E;" d="M81.81,380.075c0,0-16.875-10.369-15.624-36.683c0,0,18.898,15.111,15.624,37.309"/>
				<path style="fill:#D8AC55;" d="M83.452,380.18c0,0-13.513-20.279-0.643-50.178C82.809,330.002,93.455,355.929,83.452,380.18z"/>
				<path style="fill:#FFD26E;" d="M84.542,378.621c0,0-5.373-32.065,24.959-57.891C109.501,320.729,110.715,362.848,84.542,378.621
					z"/>
			</g>
			<g>
				<polygon style="fill:#2B4172;" points="97.016,403.306 69.888,403.306 66.12,374.491 100.785,374.491 				"/>
				<polygon points="98.006,404.432 68.898,404.432 66.12,400.326 100.785,400.326 				"/>
			</g>
		</g>
	</g>
	<g>
		<g>
			<g>
				<g>
					<g>
						<path style="fill:#2B4172;" d="M384.617,418.556l-125.326,21.521l-201.718-4.203c-6.856-6.664-6.097-13.007,0.62-19.093
							l193.738-5.648l7.905-0.845l124.781-13.252C390.821,404.544,390.843,411.722,384.617,418.556z"/>
						<path style="fill:#1E3356;" d="M384.617,418.556l-125.326,21.521c6.867-14.472-3.647-21.521-3.647-21.521l4.193-8.268
							l124.781-13.252C390.821,404.544,390.843,411.722,384.617,418.556z"/>
					</g>
					<g>
						<ellipse style="fill:#1E3356;" cx="239.47" cy="429.158" rx="16.432" ry="4.415"/>
						<ellipse style="fill:#1E3356;" cx="75.636" cy="426.215" rx="16.433" ry="4.415"/>
					</g>
				</g>
				<polygon points="384.621,397.033 255.64,418.555 58.192,416.779 188.011,395.127 				"/>
			</g>
			<g>
				<g>
					<polygon style="fill:#2B4172;" points="250.989,219.622 250.989,215.724 316.027,201.008 413.764,203.461 413.764,209.775 
						315.209,212.617 					"/>
					<polygon style="fill:#1E3356;" points="413.764,209.775 349.447,220.508 250.989,219.622 315.724,208.825 					"/>
				</g>
				<rect x="327.471" y="214.327" style="fill:#1E3356;" width="9.811" height="196.967"/>
			</g>
		</g>
		<g>
			<g>
				<g>
					<path style="fill:#D8AC55;" d="M232.131,236.37c0,0-3.3,69.705-21.515,90.17c-18.215,20.464-66.508,54.61-66.508,54.61
						l-8.801-11.24l56.352-55.108l9.138-81.505L232.131,236.37z"/>
					<g>
						<g>
							<path style="fill:#2B4172;" d="M124.23,378.108l3.398-2.512l7.678-5.686l8.801,11.24c0,0,3.881,17.052,2.915,24.262
								c-0.176,1.316-0.508,2.292-1.063,2.793C142.401,411.434,124.23,378.108,124.23,378.108z"/>
							<path style="fill:#1E3356;" d="M124.23,378.108l3.398-2.512l5.63,8.619l0.634,4.12c0,0,9.624,17.568,13.131,17.076
								c-0.176,1.316-0.508,2.292-1.063,2.793C142.401,411.434,124.23,378.108,124.23,378.108z"/>
						</g>
						<g>
							<path style="fill:#FFFFFF;" d="M144.579,387.89c0.101-0.079,0.187-0.219,0.198-0.349c0.024-0.28-0.163-0.568-0.459-0.597
								c-0.498-0.048-0.996-0.097-1.494-0.145c-0.14-0.014-0.287,0.021-0.399,0.11c-0.101,0.079-0.187,0.219-0.198,0.349
								c-0.024,0.28,0.163,0.568,0.459,0.597l1.494,0.145C144.321,388.013,144.467,387.978,144.579,387.89z"/>
							<path style="fill:#FFFFFF;" d="M144.982,389.806c0.077-0.103,0.125-0.26,0.102-0.388c-0.024-0.138-0.09-0.276-0.209-0.357
								c-0.12-0.082-0.243-0.109-0.388-0.102c-0.405,0.019-0.809,0.039-1.214,0.058c-0.131,0.006-0.281,0.107-0.357,0.209
								c-0.076,0.102-0.124,0.26-0.102,0.388c0.024,0.138,0.09,0.276,0.209,0.357c0.12,0.082,0.243,0.109,0.388,0.102
								c0.405-0.019,0.809-0.039,1.214-0.058C144.757,390.009,144.906,389.908,144.982,389.806z"/>
							<path style="fill:#FFFFFF;" d="M145.32,391.991c0.077-0.102,0.124-0.26,0.102-0.388c-0.024-0.138-0.09-0.276-0.209-0.357
								c-0.117-0.08-0.246-0.115-0.388-0.102c-0.369,0.036-0.738,0.071-1.107,0.107c-0.135,0.013-0.277,0.102-0.357,0.209
								c-0.077,0.102-0.124,0.26-0.102,0.388c0.024,0.138,0.09,0.276,0.209,0.357c0.117,0.08,0.246,0.115,0.388,0.102
								c0.369-0.036,0.738-0.071,1.107-0.107C145.097,392.186,145.24,392.097,145.32,391.991z"/>
						</g>
					</g>
				</g>
				<g>
					<g>
						<g>
							<path style="fill:#2B4172;" d="M262.663,406.504l-0.995-4.107l-2.257-9.284l13.777-3.744c0,0,17.221,3.048,23.489,6.739
								c1.145,0.674,1.915,1.358,2.161,2.064C300.431,402.706,262.663,406.504,262.663,406.504z"/>
							<path style="fill:#1E3356;" d="M262.663,406.504l-0.995-4.107l10.129-1.84l4.043,1.016c0,0,19.927-2.043,20.836-5.466
								c1.145,0.674,1.915,1.358,2.161,2.064C300.431,402.706,262.663,406.504,262.663,406.504z"/>
						</g>
						<g>
							<path style="fill:#FFFFFF;" d="M279.582,391.553c-0.034-0.123-0.129-0.257-0.245-0.318c-0.248-0.131-0.587-0.071-0.728,0.191
								c-0.238,0.44-0.476,0.88-0.714,1.32c-0.067,0.124-0.092,0.272-0.054,0.41c0.034,0.124,0.129,0.257,0.245,0.318
								c0.248,0.131,0.587,0.07,0.728-0.191l0.714-1.32C279.596,391.839,279.62,391.69,279.582,391.553z"/>
							<path style="fill:#FFFFFF;" d="M281.505,391.926c-0.065-0.11-0.191-0.216-0.318-0.245c-0.136-0.031-0.289-0.024-0.41,0.054
								c-0.122,0.079-0.195,0.182-0.244,0.318c-0.139,0.38-0.279,0.761-0.418,1.141c-0.045,0.123-0.01,0.3,0.054,0.41
								c0.065,0.11,0.191,0.216,0.318,0.245c0.136,0.031,0.289,0.024,0.41-0.054c0.122-0.079,0.195-0.182,0.245-0.318
								c0.139-0.38,0.279-0.761,0.418-1.141C281.604,392.212,281.569,392.035,281.505,391.926z"/>
							<path style="fill:#FFFFFF;" d="M283.649,392.463c-0.065-0.11-0.191-0.216-0.318-0.245c-0.136-0.031-0.289-0.024-0.41,0.054
								c-0.119,0.077-0.202,0.181-0.245,0.318c-0.111,0.354-0.221,0.708-0.332,1.061c-0.04,0.129-0.014,0.295,0.054,0.41
								c0.065,0.11,0.191,0.216,0.318,0.245c0.136,0.031,0.289,0.024,0.41-0.054c0.119-0.077,0.202-0.182,0.245-0.318
								c0.111-0.354,0.221-0.708,0.332-1.061C283.743,392.744,283.716,392.578,283.649,392.463z"/>
						</g>
					</g>
					<g>
						<path style="fill:#FFD26E;" d="M273.188,389.368l-4.728,1.284l-4.107,1.112l-4.942,1.348
							c-23.713-78.328-37.854-82.585-67.182-114.759c-23.382-25.639-19.018-41.865-19.018-41.865l33.169,1.198
							C250.523,283.466,273.188,389.368,273.188,389.368z"/>
						<path style="fill:#FFFFFF;" d="M268.461,390.652l-4.107,1.112c-2.952-11.819-5.99-23.606-9.68-35.212
							c-3.583-11.242-7.787-22.301-13.167-32.805c-5.188-10.14-11.552-19.488-18.729-28.313
							c-13.691-16.878-29.436-32.751-37.329-53.416c-0.417-1.08,0.46-2.332,1.487-2.621c1.187-0.321,2.214,0.417,2.621,1.487
							c4.353,11.391,11.434,21.489,19.05,30.923c6.878,8.535,14.236,16.686,20.943,25.35c7.091,9.167,13.156,18.964,18.098,29.446
							C257.262,346.99,263.016,368.853,268.461,390.652z"/>
					</g>
				</g>
			</g>
			<g>
				<path style="fill:#2B4172;" d="M198.403,126.662c0,0-5.028-6.132-7.48-4.415c-2.453,1.717,2.207,5.641,2.207,5.641
					s-5.565-2.575-7.688-0.613c-2.122,1.962,14.555,12.263,14.555,12.263h8.54c0,0,15.495-10.914,13.533-12.876
					c-1.962-1.962-8.032,1.962-8.032,1.962s3.755-5.425,2.404-6.377c-2.673-1.885-8.107,4.231-8.107,4.231L198.403,126.662z"/>
				<g>
					<path d="M188.876,101.661c0,0-9.259-11.729-4.967-16.604c0,0,2.695-11.305,9.748-8.973c0,0,8.218-8.337,13.736-3.462
						c0,0,8.763-4.593,12.965,1.201c0,0,11.561-3.493,9.783,12.455c-1.778,15.948-8.768,19.668-8.768,19.668L188.876,101.661z"/>
					<g>
						<path style="fill:#E7AC8D;" d="M210.523,130.661c-1.009-3.384-0.004-7.288,2.514-9.764c1.976-1.944,4.678-2.962,6.856-4.676
							c3.628-2.856,5.531-7.474,6.031-12.064c0.501-4.59-0.248-9.217-1.073-13.76c-14.666-6.093-27.604-5.748-38.181,3.397
							c5.775,11.583,9.092,24.385,9.669,37.316c0,0-9.669,8.213-9.669,19.617c0,11.405,34.269,8.584,34.269-0.613
							C220.94,140.917,210.523,130.661,210.523,130.661z"/>
						<g>
							<g>
								<path d="M210.355,101.216c0,1.027-0.507,1.86-1.133,1.86c-0.626,0-1.133-0.833-1.133-1.86s0.507-1.86,1.133-1.86
									C209.847,99.357,210.355,100.189,210.355,101.216z"/>
								<path style="fill:#FFFFFF;" d="M209.873,100.694c0,0.44-0.217,0.797-0.486,0.797s-0.486-0.357-0.486-0.797
									s0.217-0.797,0.486-0.797S209.873,100.254,209.873,100.694z"/>
							</g>
							<g>
								<path d="M221.059,101.216c0,1.027-0.507,1.86-1.133,1.86c-0.625,0-1.133-0.833-1.133-1.86s0.507-1.86,1.133-1.86
									C220.552,99.357,221.059,100.189,221.059,101.216z"/>
								<path style="fill:#FFFFFF;" d="M220.578,100.694c0,0.44-0.217,0.797-0.486,0.797c-0.268,0-0.486-0.357-0.486-0.797
									s0.217-0.797,0.486-0.797C220.36,99.897,220.578,100.254,220.578,100.694z"/>
							</g>
							<path style="fill:#BC7F64;" d="M214.964,107.506c-0.141,0-0.277-0.074-0.351-0.205c-0.109-0.193-0.04-0.437,0.153-0.545
								c0.315-0.176,0.611-0.342,0.85-0.56c0.237-0.216,0.386-0.466,0.42-0.703c0.032-0.231-0.061-0.473-0.221-0.574
								c-0.14-0.089-0.352-0.107-0.651-0.057c-0.219,0.036-0.425-0.112-0.461-0.331c-0.036-0.218,0.112-0.425,0.331-0.461
								c0.5-0.082,0.895-0.028,1.207,0.169c0.429,0.269,0.666,0.818,0.589,1.366c-0.077,0.541-0.408,0.942-0.673,1.184
								c-0.307,0.281-0.658,0.477-0.997,0.667C215.098,107.489,215.03,107.506,214.964,107.506z"/>
							<path d="M211.046,97.853c-0.285-0.281-0.721-0.581-1.141-0.769c-0.43-0.198-0.893-0.313-1.363-0.329
								c-0.467-0.009-0.949,0.041-1.404,0.226c-0.464,0.156-0.892,0.425-1.312,0.714l-0.025,0.017
								c-0.182,0.125-0.432,0.079-0.557-0.103c-0.119-0.173-0.082-0.407,0.077-0.537c0.445-0.362,0.915-0.712,1.464-0.95
								c0.534-0.265,1.145-0.39,1.754-0.423c0.613-0.028,1.233,0.078,1.805,0.287c0.582,0.22,1.087,0.488,1.611,0.926
								c0.278,0.232,0.315,0.646,0.082,0.924c-0.232,0.278-0.646,0.315-0.924,0.082c-0.014-0.011-0.027-0.023-0.039-0.035
								L211.046,97.853z"/>
							<path d="M217.457,96.964c0.413-0.426,0.821-0.699,1.313-0.937c0.483-0.226,1.035-0.355,1.585-0.328
								c0.544,0.031,1.085,0.181,1.523,0.455c0.455,0.254,0.821,0.596,1.162,0.945c0.155,0.158,0.152,0.412-0.007,0.566
								c-0.149,0.145-0.381,0.151-0.537,0.021l-0.024-0.02c-0.325-0.274-0.658-0.53-1.022-0.688
								c-0.356-0.182-0.736-0.234-1.098-0.224c-0.364,0.017-0.719,0.133-1.046,0.325c-0.316,0.184-0.648,0.471-0.846,0.723
								l-0.019,0.024c-0.224,0.285-0.637,0.333-0.921,0.109s-0.333-0.637-0.109-0.921C217.427,96.997,217.442,96.98,217.457,96.964z
								"/>
							<path style="fill:#BC7F64;" d="M214.966,111.391c-2.61,0-5.185-1.477-6.481-3.747c-0.11-0.192-0.043-0.438,0.149-0.547
								c0.192-0.112,0.437-0.043,0.547,0.149c1.203,2.106,3.643,3.443,6.061,3.336c0.226-0.014,0.408,0.161,0.419,0.382
								c0.01,0.221-0.161,0.409-0.382,0.419C215.175,111.388,215.07,111.391,214.966,111.391z"/>
						</g>
					</g>
					<path d="M192.058,103.076c0,0,3.624-2.933,2.398-11.763c0,0,8.84,3.247,9.565-0.859c0,0,8.277,3.618,10.424,0
						c0,0,7.112,5.58,11.343,2.085v-3.434c0,0-25.63-11.895-40.345,4.231l4.276,8.952L192.058,103.076z"/>
					<path d="M191.839,111.248c0,0,2.017,8.156,3.267,8.397c1.25,0.241-1.08-10.979-1.08-10.979L191.839,111.248z"/>
					<g>
						<path style="fill:#E7AC8D;" d="M193.037,103.23c2.32,2.226,2.715,5.578,0.883,7.488c-1.832,1.91-5.199,1.655-7.519-0.571
							c-2.32-2.226-2.715-5.578-0.883-7.488C187.35,100.749,190.717,101.005,193.037,103.23z"/>
						<g>
							<path style="fill:#BC7F64;" d="M191.611,110.098c-0.083,0-0.167-0.026-0.239-0.079c-0.178-0.132-0.215-0.383-0.083-0.561
								c0.847-1.141,0.933-2.794,0.21-4.018c-0.723-1.224-2.21-1.946-3.621-1.753c-0.218,0.03-0.421-0.123-0.452-0.343
								c-0.03-0.22,0.124-0.422,0.343-0.452c1.716-0.235,3.537,0.645,4.421,2.139c0.883,1.494,0.778,3.511-0.256,4.905
								C191.855,110.042,191.734,110.098,191.611,110.098z"/>
							<path style="fill:#BC7F64;" d="M188.147,108.319c-0.059,0-0.119-0.013-0.175-0.04c-0.199-0.097-0.282-0.337-0.185-0.536
								c0.382-0.786,1.026-1.429,1.813-1.81c0.787-0.381,1.692-0.486,2.544-0.298c0.216,0.048,0.353,0.262,0.305,0.478
								c-0.048,0.216-0.263,0.349-0.478,0.305c-0.678-0.15-1.396-0.066-2.022,0.236c-0.625,0.302-1.137,0.814-1.44,1.439
								C188.439,108.236,188.296,108.319,188.147,108.319z"/>
						</g>
					</g>
				</g>
				<g>
					<g>
						<g>
							<g>
								<path style="fill:#E7AC8D;" d="M156.043,216.793c0,0,8.006,5.932,7.548,8.635c-0.457,2.703-2.686,4.929-2.686,4.929
									l1.407,4.992c0,0,0.843,2.933-1.011,3.389c-1.854,0.456-2.803-0.958-2.803-0.958s-0.282,1.959-1.255,2.447
									c-0.973,0.488-2.706-0.356-2.667-0.927c0,0-0.465,2.07-1.857,2.361c-1.392,0.29-2.484-1.24-2.484-1.24
									s-1.105,1.854-2.451,1.884c-1.346,0.03-2.005-1.917-2.005-1.917s-4.4-8.867-1.017-21.943L156.043,216.793z"/>
								<g>
									<path style="fill:#BC7F64;" d="M160.191,229.688c-0.217,0-0.41-0.155-0.45-0.377l-0.983-5.492
										c-0.045-0.248,0.121-0.486,0.37-0.531c0.248-0.044,0.486,0.122,0.531,0.37l0.983,5.492c0.045,0.248-0.121,0.486-0.37,0.531
										C160.245,229.686,160.218,229.688,160.191,229.688z"/>
									<path style="fill:#BC7F64;" d="M159.949,227.099c-0.135,0-0.267-0.059-0.358-0.173c-0.157-0.198-0.124-0.485,0.073-0.643
										l0.935-0.743c0.198-0.158,0.485-0.124,0.643,0.074c0.157,0.198,0.124,0.485-0.074,0.643L160.233,227
										C160.149,227.067,160.049,227.099,159.949,227.099z"/>
								</g>
							</g>
							<g>
								<path style="fill:#2B4172;" d="M181.632,157.94l-22.49,15.076l-1.624,44.958c-4.049,1.955-8.356,2.432-12.92,1.192
									c0,0-6.344-37.865-2.065-50.876c6.54-19.887,39.675-33.118,39.675-33.118L181.632,157.94z"/>
								<path style="fill:#1E3356;" d="M158.437,217.754c-0.362-0.619-1.058-0.7-1.661-0.435c-3.563,1.563-7.621,2.033-11.448,1.35
									c-0.645-0.115-1.308,0.175-1.493,0.848c-0.161,0.587,0.199,1.377,0.848,1.493c4.531,0.809,9.106,0.253,13.319-1.595
									C158.602,219.151,158.74,218.273,158.437,217.754z"/>
							</g>
						</g>
						<g>
							<g>
								<path style="fill:#E7AC8D;" d="M288.89,163.28c0,0-0.605-9.376,1.62-10.693c2.225-1.317,5.184-1.068,5.184-1.068
									l2.737-4.053c0,0,1.598-2.393,3.056-1.336c1.458,1.057,1.018,2.601,1.018,2.601s1.582-0.99,2.526-0.587
									c0.944,0.403,1.392,2.165,0.957,2.484c0,0,1.774-0.926,2.83-0.101c1.056,0.825,0.619,2.543,0.619,2.543
									s2.007-0.333,2.849,0.617c0.841,0.951-0.159,2.611-0.159,2.611s-4.441,10.074-15.915,15.601L288.89,163.28z"/>
								<path style="fill:#BC7F64;" d="M293.827,159.098c-0.007,0-0.015,0-0.023-0.001c-0.238-0.012-0.421-0.216-0.408-0.453
									c0.06-1.149,0.008-2.165-0.155-3.02c-0.025-0.126,0.009-0.256,0.091-0.356c0.081-0.099,0.203-0.156,0.331-0.157
									c1.366-0.004,2.154-0.09,3.151-0.201c0.505-0.056,1.059-0.116,1.76-0.174c0.145-0.012,0.291-0.02,0.437-0.028
									c0.379-0.02,0.736-0.04,1.065-0.129c0.387-0.105,0.692-0.304,0.855-0.561c0.212-0.333,0.167-0.668,0.092-0.891
									c-0.144-0.424-0.508-0.797-0.928-0.951c-0.669-0.244-1.458-0.165-2.222-0.09c-0.232,0.023-0.462,0.046-0.685,0.06
									c-0.27,0.007-0.443-0.165-0.458-0.403c-0.016-0.238,0.165-0.443,0.402-0.458c0.215-0.014,0.434-0.036,0.655-0.058
									c0.862-0.085,1.749-0.175,2.605,0.139c0.666,0.244,1.221,0.813,1.448,1.484c0.192,0.567,0.128,1.147-0.181,1.632
									c-0.28,0.438-0.762,0.767-1.357,0.928c-0.418,0.114-0.838,0.137-1.243,0.158c-0.138,0.007-0.276,0.015-0.412,0.026
									c-0.692,0.057-1.239,0.117-1.738,0.173c-0.894,0.098-1.624,0.179-2.738,0.2c0.11,0.806,0.138,1.719,0.085,2.721
									C294.246,158.919,294.055,159.098,293.827,159.098z"/>
							</g>
							<g>
								<path style="fill:#2B4172;" d="M225.691,136.64c10.019,4.813,20.748,22.393,32.918,41.067l30.38-14.999
									c3.327,2,5.86,4.919,7.224,9.192c0,0-28.488,25.627-41.11,22.889c-12.622-2.738-30.941-31.474-30.941-31.474L225.691,136.64
									z"/>
								<path style="fill:#1E3356;" d="M297.126,171.611c-1.137-4.064-3.85-7.602-7.479-9.756c-1.27-0.754-2.423,1.225-1.155,1.977
									c3.129,1.856,5.45,4.894,6.427,8.388C295.315,173.637,297.524,173.035,297.126,171.611z"/>
							</g>
						</g>
						<g>
							<g>
								<path style="fill:#2B4172;" d="M196.339,131.11c0,0,8.622,8.662,14.184-0.449l15.264,6.022c0,0,1.951,65.174,7.452,99.827
									c0.339,2.133-1.002,4.171-3.103,4.67c-8.117,1.927-28.823,5.459-55.191-0.354c-1.886-0.416-3.246-2.068-3.26-3.999
									c-0.121-16.784-0.085-93.257,10.522-101.656L196.339,131.11z"/>
								<path style="fill:#1E3356;" d="M231.292,239.951c-18.745,4.21-38.35,4.046-57.026-0.458
									c-2.662-0.642-3.799,3.462-1.132,4.105c19.432,4.686,39.788,4.838,59.289,0.458
									C235.096,243.456,233.965,239.35,231.292,239.951z"/>
							</g>
							<path style="fill:#1E3356;" d="M197.346,209.257c0,0,1.793,8.967-5.81,11.336c0,0-0.646,6.866-1.094,10.632
								c0,0,21.978,2.511,36.593-2.242l-0.548-8.787c0,0-5.918-2.152-5.47-10.939C221.018,209.257,211.962,206.747,197.346,209.257z
								"/>
						</g>
					</g>
					<g>
						<g>
							<g>
								<g>
									<path style="fill:#1E3356;" d="M206.501,136.221c-0.012,0-0.024-0.001-0.036-0.001c-4.549-0.402-8.836-2.645-11.761-6.154
										c-0.142-0.17-0.119-0.423,0.051-0.565c0.169-0.143,0.423-0.12,0.565,0.051c2.789,3.346,6.877,5.485,11.216,5.869
										c0.22,0.019,0.383,0.214,0.364,0.435C206.882,136.064,206.706,136.221,206.501,136.221z"/>
									<path style="fill:#1E3356;" d="M202.603,135.393c-0.211,0-0.388-0.165-0.4-0.379c-0.013-0.221,0.157-0.41,0.378-0.423
										c1.657-0.093,3.413-0.578,4.698-1.296c1.479-0.826,2.656-2.12,3.794-3.371c0.15-0.163,0.403-0.176,0.567-0.027
										c0.164,0.149,0.176,0.403,0.027,0.567c-1.182,1.298-2.404,2.642-3.996,3.531c-1.387,0.775-3.272,1.297-5.045,1.397
										C202.618,135.393,202.611,135.393,202.603,135.393z"/>
								</g>
								<g>
									<path style="fill:#1E3356;" d="M199.099,137.826c-0.701,0-1.371-0.181-1.886-0.344c-2.155-0.679-4.148-1.872-5.766-3.451
										c-0.158-0.155-0.161-0.409-0.006-0.568c0.155-0.158,0.409-0.16,0.567-0.006c1.527,1.492,3.411,2.619,5.446,3.261
										c0.492,0.155,1.139,0.329,1.771,0.304c0.604-0.025,1.145-0.241,1.486-0.593c0.155-0.159,0.408-0.162,0.567-0.009
										c0.159,0.154,0.163,0.408,0.009,0.567c-0.489,0.506-1.211,0.803-2.03,0.837
										C199.205,137.824,199.152,137.826,199.099,137.826z"/>
									<path style="fill:#1E3356;" d="M209.765,136.913c-0.363,0-0.725-0.027-1.086-0.081c-0.219-0.033-0.37-0.238-0.336-0.456
										c0.033-0.218,0.238-0.37,0.456-0.336c2.164,0.33,4.429-0.467,5.913-2.073c0.15-0.162,0.405-0.173,0.567-0.023
										c0.163,0.15,0.173,0.404,0.022,0.567C213.886,136.04,211.837,136.913,209.765,136.913z"/>
								</g>
							</g>
							<g>
								<path style="fill:#FFFFFF;" d="M213.946,162.696c-0.027,0-0.054-0.003-0.081-0.008c-0.217-0.044-0.357-0.257-0.312-0.474
									c0.676-3.28-0.243-6.701-1.12-9.315c-0.239-0.712-0.492-1.421-0.745-2.129c-0.819-2.291-1.666-4.66-2-7.162
									c-0.369-2.763-0.103-5.558,0.154-8.26c0.021-0.22,0.216-0.374,0.438-0.361c0.22,0.021,0.382,0.217,0.361,0.438
									c-0.253,2.657-0.515,5.405-0.158,8.077c0.323,2.418,1.156,4.746,1.961,6.998c0.255,0.714,0.51,1.427,0.751,2.144
									c0.908,2.71,1.859,6.264,1.145,9.732C214.299,162.565,214.133,162.696,213.946,162.696z"/>
								<path style="fill:#FFFFFF;" d="M201.788,162.398c-0.063,0-0.127-0.015-0.188-0.047c-0.196-0.103-0.27-0.346-0.166-0.542
									c1.512-2.85,1.029-6.238,0.359-8.579c-0.47-1.637-1.141-3.248-1.79-4.805c-0.499-1.197-1.015-2.434-1.442-3.687
									c-1.215-3.57-1.378-6.662-0.483-9.189c0.075-0.209,0.305-0.317,0.512-0.244c0.209,0.074,0.318,0.303,0.244,0.512
									c-0.834,2.353-0.67,5.268,0.486,8.663c0.418,1.227,0.929,2.453,1.423,3.637c0.658,1.579,1.339,3.211,1.821,4.893
									c0.712,2.483,1.216,6.09-0.421,9.176C202.07,162.321,201.931,162.398,201.788,162.398z"/>
							</g>
						</g>
						<g>
							<path style="fill:#1E3356;" d="M226.804,164.947c-0.008,0-0.015,0-0.023-0.001c-0.221-0.012-0.39-0.202-0.378-0.423
								c0.23-4.131-0.118-8.271-1.037-12.307c-0.049-0.216,0.086-0.431,0.302-0.48c0.215-0.047,0.431,0.086,0.48,0.302
								c0.935,4.108,1.29,8.323,1.056,12.529C227.192,164.782,227.015,164.947,226.804,164.947z"/>
							<path style="fill:#1E3356;" d="M176.482,161.499c-0.133,0-0.263-0.066-0.339-0.186c-0.119-0.187-0.064-0.435,0.123-0.554
								c1.799-1.144,3.311-2.727,4.372-4.577c0.111-0.192,0.356-0.257,0.547-0.148c0.192,0.11,0.258,0.355,0.148,0.547
								c-1.126,1.963-2.729,3.641-4.638,4.855C176.63,161.479,176.556,161.499,176.482,161.499z"/>
						</g>
					</g>
				</g>
			</g>
		</g>
	</g>
</g>
</svg>
