<?xml version="1.0" encoding="utf-8"?>
<!-- Generator: Adobe Illustrator 27.5.0, SVG Export Plug-In . SVG Version: 6.00 Build 0)  -->
<svg version="1.1" xmlns="http://www.w3.org/2000/svg" xmlns:xlink="http://www.w3.org/1999/xlink" x="0px" y="0px"
	 viewBox="0 0 3710 3710" style="enable-background:new 0 0 3710 3710;" xml:space="preserve">
<g id="Background">
	<g>
		<g>
			<rect style="fill:#FFFFFF;" width="3710" height="3710"/>
		</g>
	</g>
</g>
<g id="Illustration">
	<g>
		<linearGradient id="SVGID_1_" gradientUnits="userSpaceOnUse" x1="3419.3398" y1="3615.2097" x2="1365.2417" y2="1398.0878">
			<stop  offset="0" style="stop-color:#DAE3FE"/>
			<stop  offset="1" style="stop-color:#E9EFFD"/>
		</linearGradient>
		<path style="fill:url(#SVGID_1_);" d="M3140.468,2356.537c-283.189,661.922-1050.59,895.312-1636.29,846.836
			c-159.92-13.236-461.811,11.054-713.046-226.53c-482.479-456.266-408.173-1409.989,53.698-1971.488
			c59.479-72.309,471.188-556.776,1112.757-550.291c469.723,4.748,799.416,270.088,839.506,303.144
			c50.644,41.759,162.344,140.992,263.012,298.418C3296.64,1426.523,3317.433,1942.901,3140.468,2356.537z"/>
		<g>
			<path style="fill:#91B3FA;" d="M2767.622,1613.746h-691.853c-7.041,0-12.749-5.708-12.749-12.749V941.016
				c0-7.041,5.708-12.749,12.749-12.749h691.853c7.041,0,12.75,5.708,12.75,12.749v659.981
				C2780.372,1608.038,2774.663,1613.746,2767.622,1613.746z"/>
			<path style="opacity:0.52;fill:#FFFFFF;" d="M2731.952,1556.623h-626.448c-2.858,0-5.175-2.317-5.175-5.175V989.267
				c0-2.858,2.317-5.175,5.175-5.175h626.448c2.858,0,5.175,2.317,5.175,5.175v562.181
				C2737.127,1554.307,2734.81,1556.623,2731.952,1556.623z"/>
		</g>
		
			<linearGradient id="SVGID_00000137813824001982970800000015805431887740293525_" gradientUnits="userSpaceOnUse" x1="1824.046" y1="3406.2368" x2="2077.6223" y2="2087.6367">
			<stop  offset="0" style="stop-color:#4F52FF"/>
			<stop  offset="1" style="stop-color:#4042E2"/>
		</linearGradient>
		<path style="fill:url(#SVGID_00000137813824001982970800000015805431887740293525_);" d="M3239.748,3255H474.01
			c-16.279,0-26.024-17.234-17.056-30.166l207.423-299.136c3.794-5.472,10.229-8.756,17.117-8.737l2357.668,6.699
			c6.88,0.02,13.288,3.333,17.05,8.816l200.647,292.437C3265.736,3237.85,3255.983,3255,3239.748,3255z"/>
		<g>
			<path style="fill:#7D97F4;" d="M3017.432,2707.008l45.861,196.402c4.939,21.146-12.025,41-33.684,39.431
				c-0.362-0.026-0.727-0.053-1.095-0.083c-13.805-1.073-25.439-10.758-28.852-24.177l-50.845-199.937L3017.432,2707.008z"/>
			<path style="fill:#7D97F4;" d="M2801.225,2718.644c-2.104,3.281-21.685,137.821-30.235,197.116
				c-2.284,15.837-15.855,27.581-31.857,27.581h-1.779c-20.719,0-36.042-19.29-31.354-39.471l43.028-185.227H2801.225z"/>
			<path style="fill:#7D97F4;" d="M2431.184,2707.008l45.861,196.402c4.938,21.146-12.026,41-33.685,39.431
				c-0.363-0.026-0.727-0.053-1.095-0.083c-13.804-1.073-25.439-10.758-28.851-24.177l-50.846-199.937L2431.184,2707.008z"/>
			<path style="fill:#7D97F4;" d="M2214.977,2718.644c-2.104,3.281-21.684,137.821-30.234,197.116
				c-2.284,15.837-15.855,27.581-31.858,27.581h-1.779c-20.719,0-36.042-19.29-31.353-39.471l43.027-185.227H2214.977z"/>
			<path style="fill:#91B3FA;" d="M2507.046,2205.693c0,0-5.937,123.775-131.544,123.754
				c-125.606-0.021-360.33,103.462-235.66,324.997l367.204-50.511V2205.693z"/>
			<path style="fill:#7D97F4;" d="M3076.128,2541.414c0,0,24.766-213.267,75.765-280.954c50.999-67.688,206.51-378.635-18.5-528.532
				c-225.008-149.897-546.952-65.786-602.271,124.845c-55.318,190.632-109.251,632.564-136.681,713.787
				c-27.43,81.223,511.057,75.769,511.057,75.769L3076.128,2541.414z"/>
			<path style="fill:#7D97F4;" d="M2770.618,2577.649c-3.867-4.485-185.083-73.566-357.015-58.877
				c-171.933,14.69-261.116,42.367-290.844,123.35c-29.727,80.982,106.487,125.623,384.286,115.236
				C2784.847,2746.972,2829.049,2645.413,2770.618,2577.649z"/>
			<path style="fill:#FFFFFF;" d="M2553.572,1943.595c0.61,0,1.154-0.431,1.276-1.051
				c24.103-123.191,112.364-185.716,182.163-216.475c75.718-33.367,146.604-37.607,147.311-37.647
				c0.718-0.039,1.269-0.654,1.228-1.371c-0.038-0.718-0.655-1.313-1.371-1.228c-0.712,0.038-72.071,4.306-148.219,37.863
				c-70.365,31.009-159.349,94.063-183.668,218.356c-0.139,0.706,0.322,1.39,1.027,1.528
				C2553.406,1943.587,2553.49,1943.595,2553.572,1943.595z"/>
			<g>
				
					<linearGradient id="SVGID_00000086687027586134152920000000851551206249209529_" gradientUnits="userSpaceOnUse" x1="4897.3652" y1="2851.6055" x2="4459.9619" y2="3607.7959" gradientTransform="matrix(0.8904 -0.1376 0.1273 0.8234 -1846.29 553.257)">
					<stop  offset="0" style="stop-color:#FF928E"/>
					<stop  offset="1" style="stop-color:#FE7062"/>
				</linearGradient>
				<path style="fill:url(#SVGID_00000086687027586134152920000000851551206249209529_);" d="M2824.369,2458.976
					c0.986-4.156,1.933-8.314,2.835-12.472c-0.739,8.961,4.709,17.104,9.947,24.53c0.543,0.77,1.085,1.539,1.628,2.309
					c22.005,31.197,44.499,62.866,46.005,101.776c1.403,36.254-17.364,69.084-44.225,95.019
					c-10.633,10.267-26.081,18.094-39.301,25.31c-15.777,8.611-32.4,15.852-49.577,21.577c4.632-1.931,8.445-5.563,10.402-9.91
					c-2.033,4.517-28.139,10.141-33.405,11.79c-10.578,3.312-21.319,6.45-32.203,8.267c-22.75,3.796-45.533,6.469-68.497,3.826
					c-23.998-2.762-47.469-11.347-66.276-25.239c-18.618-13.752-42.472-42.249-28.627-66.121
					c7.906-13.631,21.146-25.994,37.57-27.996c1.23-0.15,2.504-0.237,3.674,0.107c2.726,0.802,4.082,3.759,3.911,6.43
					c-0.171,2.671-1.494,5.166-2.592,7.661c-1.098,2.494-2.001,5.237-1.296,7.812c1.981,7.23,15.966,9.242,22.909,9.386
					c12.825,0.267,26.405-3.454,38.843-6.209c19.666-3.039,37.779-9.536,56.411-15.688c10.382-3.428,20.744-6.919,31.148-10.285
					c5.829-1.886,14.526-3.025,19.018-7.061c-1.783-1.275-4.14-1.259-6.373-2.166c-2.541-1.032-6.636-5.847-8.323-6.182
					c13.91,2.767,32.833,2.105,45.978-4.089c11.872-5.594,19.633-21.193,22.771-32.401
					C2806.04,2525.676,2816.451,2492.354,2824.369,2458.976z"/>
				
					<linearGradient id="SVGID_00000027601450500568419710000012779878584986563215_" gradientUnits="userSpaceOnUse" x1="5114.6987" y1="2411.3237" x2="4633.1011" y2="2586.9277" gradientTransform="matrix(1 0.0084 -0.0084 1 -2343.7717 -87.0879)">
					<stop  offset="0" style="stop-color:#FF928E"/>
					<stop  offset="1" style="stop-color:#FE7062"/>
				</linearGradient>
				<path style="fill:url(#SVGID_00000027601450500568419710000012779878584986563215_);" d="M2547.544,2317.497
					c7.544,86.733,11.45,167.932,4.088,231.984c-21.698,0.977-38.388,7.525-38.456,15.603c-0.075,8.894,20.029,16.273,44.902,16.482
					s43.801-6.938,45.172-15.726c0.372-2.387,0.184-4.416-0.468-6.155l36.872-232.293
					C2643.03,2261.099,2553.841,2253.848,2547.544,2317.497z"/>
				
					<linearGradient id="SVGID_00000043451357750540003540000015317985149906816393_" gradientUnits="userSpaceOnUse" x1="2878.7456" y1="2115.8811" x2="2785.7761" y2="2242.6577">
					<stop  offset="0" style="stop-color:#FF928E"/>
					<stop  offset="1" style="stop-color:#FE7062"/>
				</linearGradient>
				<path style="fill:url(#SVGID_00000043451357750540003540000015317985149906816393_);" d="M2583.574,2132.429
					c-64.218,147.152-31.196,281.592,42.751,422.573c104.976,55.319,189.513,60.821,233.364-32.845
					c55.475-147.114-143.196-277.698-137.442-390.53L2583.574,2132.429z"/>
				
					<linearGradient id="SVGID_00000001651931466870625110000013677990395146191272_" gradientUnits="userSpaceOnUse" x1="2623.3359" y1="2491.0586" x2="2628.4072" y2="2134.3945">
					<stop  offset="0" style="stop-color:#FF928E"/>
					<stop  offset="1" style="stop-color:#FE7062"/>
				</linearGradient>
				<path style="fill:url(#SVGID_00000001651931466870625110000013677990395146191272_);" d="M2602.806,2311.086
					c7.45,93.404,6.352,179.642-13.946,249.78c-23.409-0.665-41.875,5.057-42.587,13.738c-0.783,9.558,20.251,19.083,46.981,21.273
					c26.73,2.191,47.648-3.997,49.817-13.339c0.589-2.537,0.547-4.733-0.016-6.655c20.552-57.913,39.37-150.649,58.015-246.874
					C2709.942,2257.99,2614.609,2243.142,2602.806,2311.086z"/>
				
					<linearGradient id="SVGID_00000000222900144725537350000002276681580028638603_" gradientUnits="userSpaceOnUse" x1="4912.793" y1="1782.4625" x2="4912.1172" y2="2098.751" gradientTransform="matrix(0.9967 0.0817 -0.0817 0.9967 -2025.8506 -255.4522)">
					<stop  offset="0" style="stop-color:#FF928E"/>
					<stop  offset="1" style="stop-color:#FE7062"/>
				</linearGradient>
				<path style="fill:url(#SVGID_00000000222900144725537350000002276681580028638603_);" d="M2687.65,2000.866
					c15.993-21.615,37.402-33.207,64.591-34.105c-8.863,36.186-5.457,68-18.268,79.206L2687.65,2000.866z"/>
				
					<linearGradient id="SVGID_00000005264123513530788550000014497829184135681938_" gradientUnits="userSpaceOnUse" x1="4443.5527" y1="4296.1172" x2="4507.7837" y2="3963.1323" gradientTransform="matrix(0.9967 0.0817 -0.0817 0.9967 -2025.8506 -255.4522)">
					<stop  offset="0" style="stop-color:#FF928E"/>
					<stop  offset="1" style="stop-color:#FE7062"/>
				</linearGradient>
				<path style="fill:url(#SVGID_00000005264123513530788550000014497829184135681938_);" d="M2696.212,2002.443
					c11.494-15.535,26.882-23.866,46.423-24.512c-6.37,26.008-3.922,48.873-13.13,56.927L2696.212,2002.443z"/>
				
					<linearGradient id="SVGID_00000025431311037776058450000009376686915700199042_" gradientUnits="userSpaceOnUse" x1="-56.6314" y1="1903.2977" x2="-57.3071" y2="2219.6016" gradientTransform="matrix(-0.9995 -0.0317 -0.0317 0.9995 2592.0681 9.6689)">
					<stop  offset="0" style="stop-color:#FF928E"/>
					<stop  offset="1" style="stop-color:#FE7062"/>
				</linearGradient>
				<path style="fill:url(#SVGID_00000025431311037776058450000009376686915700199042_);" d="M2616.763,1992.867
					c-13.441-23.288-33.399-37.231-60.311-41.204c4.706,36.957-2.282,68.18,9.177,80.766L2616.763,1992.867z"/>
				
					<linearGradient id="SVGID_00000014598107422258706450000003974794364682086574_" gradientUnits="userSpaceOnUse" x1="3095.1079" y1="2476.6697" x2="2351.3535" y2="1787.0066">
					<stop  offset="0" style="stop-color:#FF928E"/>
					<stop  offset="1" style="stop-color:#FE7062"/>
				</linearGradient>
				<path style="fill:url(#SVGID_00000014598107422258706450000003974794364682086574_);" d="M2607.487,1996.207
					c-9.358-16.213-23.253-25.921-41.989-28.687c3.276,25.73-1.589,47.468,6.389,56.23L2607.487,1996.207z"/>
				
					<linearGradient id="SVGID_00000105424400917992431960000007824177659444278445_" gradientUnits="userSpaceOnUse" x1="2629.967" y1="2102.8745" x2="2895.3521" y2="1722.5461">
					<stop  offset="0" style="stop-color:#FF928E"/>
					<stop  offset="1" style="stop-color:#FE7062"/>
				</linearGradient>
				
					<circle style="fill:url(#SVGID_00000105424400917992431960000007824177659444278445_);" cx="2647.439" cy="2077.835" r="93.882"/>
				
					<linearGradient id="SVGID_00000068678392121326795070000017442668457091304621_" gradientUnits="userSpaceOnUse" x1="4824.5273" y1="1893.5598" x2="4802.1362" y2="1955.0394" gradientTransform="matrix(0.9967 0.0817 -0.0817 0.9967 -2025.8506 -255.4522)">
					<stop  offset="0" style="stop-color:#09005D"/>
					<stop  offset="1" style="stop-color:#1A0F91"/>
				</linearGradient>
				<path style="fill:url(#SVGID_00000068678392121326795070000017442668457091304621_);" d="M2620.1,2061.378
					c-0.363,4.422-4.241,7.712-8.662,7.35c-4.422-0.362-7.712-4.241-7.35-8.662s4.241-7.712,8.662-7.35
					C2617.172,2053.078,2620.462,2056.956,2620.1,2061.378z"/>
				
					<linearGradient id="SVGID_00000115503408049632640090000003824480761790033538_" gradientUnits="userSpaceOnUse" x1="4898.3647" y1="1891.6624" x2="4875.9741" y2="1953.1421" gradientTransform="matrix(0.9967 0.0817 -0.0817 0.9967 -2025.8506 -255.4522)">
					<stop  offset="0" style="stop-color:#09005D"/>
					<stop  offset="1" style="stop-color:#1A0F91"/>
				</linearGradient>
				<path style="fill:url(#SVGID_00000115503408049632640090000003824480761790033538_);" d="M2693.849,2065.519
					c-0.362,4.422-4.241,7.712-8.662,7.35s-7.712-4.241-7.35-8.662c0.363-4.422,4.241-7.712,8.662-7.35
					C2690.921,2057.219,2694.211,2061.098,2693.849,2065.519z"/>
				
					<linearGradient id="SVGID_00000077287811308029556070000017931687368894596793_" gradientUnits="userSpaceOnUse" x1="4905.1211" y1="1929.8607" x2="4798.3223" y2="2126.4683" gradientTransform="matrix(0.9967 0.0817 -0.0817 0.9967 -2025.8506 -255.4522)">
					<stop  offset="0" style="stop-color:#FEBBBA"/>
					<stop  offset="1" style="stop-color:#FF928E"/>
				</linearGradient>
				<path style="fill:url(#SVGID_00000077287811308029556070000017931687368894596793_);" d="M2695.624,2125.153
					c-1.014,12.365-13.347,21.446-27.546,20.281c-14.2-1.164-24.889-12.131-23.876-24.497c1.014-12.365,13.347-21.446,27.546-20.282
					C2685.948,2101.82,2696.638,2112.788,2695.624,2125.153z"/>
				
					<linearGradient id="SVGID_00000147934780452897769970000005012508129220102562_" gradientUnits="userSpaceOnUse" x1="4864.6587" y1="1907.8811" x2="4757.8599" y2="2104.4885" gradientTransform="matrix(0.9967 0.0817 -0.0817 0.9967 -2025.8506 -255.4522)">
					<stop  offset="0" style="stop-color:#FEBBBA"/>
					<stop  offset="1" style="stop-color:#FF928E"/>
				</linearGradient>
				<path style="fill:url(#SVGID_00000147934780452897769970000005012508129220102562_);" d="M2644.409,2119.322
					c-1.014,12.365-13.346,21.445-27.546,20.281c-14.2-1.164-24.889-12.132-23.876-24.497c1.013-12.365,13.346-21.445,27.546-20.281
					C2634.733,2095.99,2645.423,2106.957,2644.409,2119.322z"/>
				
					<linearGradient id="SVGID_00000083778943468065996600000000575015734279140741_" gradientUnits="userSpaceOnUse" x1="4837.4048" y1="1973.8195" x2="4859.4971" y2="1973.8195" gradientTransform="matrix(0.9967 0.0817 -0.0817 0.9967 -2025.8506 -255.4522)">
					<stop  offset="0" style="stop-color:#E1473D"/>
					<stop  offset="1" style="stop-color:#E9605A"/>
				</linearGradient>
				<path style="fill:url(#SVGID_00000083778943468065996600000000575015734279140741_);" d="M2656.704,2104.544
					c-0.175,2.131-12.036,11.616-12.036,11.616s-10.158-11.29-9.984-13.421c0.175-2.131,5.245-3.454,11.326-2.956
					C2652.091,2100.282,2656.879,2102.414,2656.704,2104.544z"/>
				
					<linearGradient id="SVGID_00000150104171869598869780000010788726985398052532_" gradientUnits="userSpaceOnUse" x1="5240.4951" y1="2407.2397" x2="4798.8667" y2="2455.9038" gradientTransform="matrix(0.9967 0.0817 -0.0817 0.9967 -2025.8506 -255.4522)">
					<stop  offset="0" style="stop-color:#FF928E"/>
					<stop  offset="1" style="stop-color:#FE7062"/>
				</linearGradient>
				<path style="fill:url(#SVGID_00000150104171869598869780000010788726985398052532_);" d="M2812.141,2578.687
					c-105.373-14.594-154.507-31.568-161.591-17.041c-15.054,18.182-7.627,28.425,21.553,36.513
					C2766.273,2605.955,2791.534,2611.153,2812.141,2578.687z"/>
				
					<linearGradient id="SVGID_00000074443944943749375310000015259382291001335188_" gradientUnits="userSpaceOnUse" x1="2784.303" y1="2354.2375" x2="2765.7087" y2="2709.2114">
					<stop  offset="0" style="stop-color:#FF928E"/>
					<stop  offset="1" style="stop-color:#FE7062"/>
				</linearGradient>
				<path style="fill:url(#SVGID_00000074443944943749375310000015259382291001335188_);" d="M2863.324,2477.817
					c-5.452,66.507-47.985,117.298-95,113.444c-47.015-3.854-80.709-60.893-75.258-127.401c5.452-66.507,47.985-117.298,95-113.444
					C2835.082,2354.271,2868.776,2411.31,2863.324,2477.817z"/>
			</g>
			<path style="fill:#91B3FA;" d="M3136.545,2286.51c-0.282-1.92-63.076,120.724-203.962,100.286
				c-140.887-20.438-255.008,14.875-312.666,130.183c-57.658,115.307-67.889,223.379-112.871,240.379
				c0,0,421.819,9.55,497.997,1.487C3081.221,2750.782,3194.944,2683.316,3136.545,2286.51z"/>
			<path style="fill:#FFFFFF;" d="M2647.19,2544.512c0.491,0,0.96-0.278,1.181-0.751c19.316-41.424,63.149-95.066,162.276-115.375
				c59.436-12.177,111.252-6.46,111.765-6.401c0.732,0.084,1.36-0.431,1.442-1.144c0.083-0.715-0.43-1.36-1.144-1.442
				c-0.521-0.059-52.692-5.822-112.515,6.423c-55.325,11.323-128.719,40.785-164.183,116.838c-0.304,0.652-0.022,1.427,0.629,1.73
				C2646.819,2544.473,2647.006,2544.512,2647.19,2544.512z"/>
		</g>
		<g>
			<g>
				<g>
					<path style="fill:#91B3FA;" d="M846.432,1960.021c-32.023-84.192-149.693-340.139-375.537-269.958
						c-3.325,1.033-3.105,5.831,0.295,6.58c48.911,10.786,229.73,63.023,369.274,266.474
						C842.737,1966.431,847.861,1963.777,846.432,1960.021z"/>
					<path style="fill:#91B3FA;" d="M844.346,1965.147c-48.583-48.995-191.813-237.033-393.074-160.121
						c-2.211,0.845-1.881,4.088,0.463,4.416c48.868,6.841,291.31,45.918,391.522,159.687
						C845.912,1972.145,847.175,1968.001,844.346,1965.147z"/>
					<path style="fill:#91B3FA;" d="M840.336,1944.218c-2.65-62.733-22.62-299.915-173.114-353.79
						c-1.097-0.393-2.09,0.839-1.448,1.813c17.455,26.471,144.374,222.004,172.173,352.274
						C838.257,1945.969,840.399,1945.703,840.336,1944.218z"/>
					<path style="fill:#91B3FA;" d="M853.053,2016.425c1.313,0.771,2.676-0.914,1.634-2.025
						c-25.971-27.683-133.918-129.834-276.832-86.165C415.946,1977.709,698.273,1925.544,853.053,2016.425z"/>
					<path style="fill:#91B3FA;" d="M851.018,1967.281c-0.481,4.669-7.151,5-8.036,0.39
						c-14.365-74.778-43.212-280.622,62.649-329.152C1030.929,1581.079,875.961,1725.192,851.018,1967.281z"/>
					<path style="fill:#91B3FA;" d="M843.847,1966.518c19.032-44.978,91.235-184.187,228.955-102.991
						c2.323,1.37,1.429,4.945-1.267,5.023c-31.634,0.918-137.05,10.988-223.256,100.818
						C846.209,1971.524,842.682,1969.27,843.847,1966.518z"/>
					<path style="fill:#91B3FA;" d="M847.248,1978.084c7.401-27.922,42.875-83.223,211.911-25.753
						c1.013,0.344,0.692,1.873-0.368,1.726c-33.442-4.62-146.58-16.161-203.759,29.152
						C851.359,1986.12,846.047,1982.614,847.248,1978.084z"/>
				</g>
				<path style="fill:#91B3FA;" d="M871.843,2750.472c1.76-4.74,35.618-610.634-31.102-790.989L871.843,2750.472z"/>
				<g>
					<path style="fill:#91B3FA;" d="M965.484,2163.198c28.145-61.195,128.867-246.205,293.817-182.434
						c2.428,0.939,2.022,4.507-0.553,4.894c-37.036,5.576-174.579,35.412-288.968,180.151
						C967.918,2168.167,964.229,2165.929,965.484,2163.198z"/>
					<path style="fill:#91B3FA;" d="M966.782,2167.128c38.722-34.099,155.083-167.152,301.351-99.601
						c1.607,0.742,1.197,3.145-0.568,3.271c-36.804,2.635-219.658,19.54-300.171,99.356
						C965.26,2172.27,964.527,2169.115,966.782,2167.128z"/>
					<path style="fill:#91B3FA;" d="M970.831,2151.716c5.146-46.669,32.029-222.615,147.03-255.206
						c0.838-0.238,1.517,0.732,0.989,1.426c-14.36,18.867-118.93,158.337-146.252,254.123
						C972.294,2153.127,970.71,2152.821,970.831,2151.716z"/>
					<path style="fill:#91B3FA;" d="M957.695,2204.946c-1.019,0.509-1.95-0.817-1.116-1.593
						c20.775-19.341,106.472-90.1,210.89-50.298C1285.764,2198.145,1077.764,2144.962,957.695,2204.946z"/>
					<path style="fill:#91B3FA;" d="M961.696,2168.383c0.123,3.508,5.083,4.092,5.976,0.697
						c14.495-55.064,46.417-207.181-30.111-248.736C846.983,1871.16,955.318,1986.507,961.696,2168.383z"/>
					<path style="fill:#91B3FA;" d="M967.085,2168.177c-11.926-34.518-58.762-142.026-165.613-88.406
						c-1.802,0.905-1.316,3.617,0.691,3.812c23.555,2.283,101.694,15.122,161.471,86.497
						C965.07,2171.792,967.815,2170.289,967.085,2168.177z"/>
					<path style="fill:#91B3FA;" d="M963.963,2176.634c-4.111-21.205-27.783-64.256-156.799-29.921
						c-0.773,0.206-0.611,1.362,0.187,1.306c25.184-1.758,110.176-4.651,150.546,32.045
						C960.491,2182.422,964.63,2180.074,963.963,2176.634z"/>
				</g>
				<path style="fill:#91B3FA;" d="M906.589,2751.647c-1.074-3.625,4.278-457.375,63.169-588.562L906.589,2751.647z"/>
				<g>
					<path style="fill:#91B3FA;" d="M761.26,2263.656c-28.167-49.671-125.25-198.406-244.12-128.816
						c-1.75,1.024-1.05,4.034,0.957,4.129c28.866,1.363,137.066,14.218,240.17,127.312
						C759.948,2268.123,762.517,2265.873,761.26,2263.656z"/>
					<path style="fill:#91B3FA;" d="M760.701,2267.131c-33.273-25.563-136.603-128.499-240.807-57.395
						c-1.145,0.781-0.569,2.795,0.791,2.741c28.367-1.127,169.722-3.472,239.88,57.293
						C762.424,2271.382,762.638,2268.62,760.701,2267.131z"/>
					<path style="fill:#91B3FA;" d="M755.925,2254.343c-9.032-39.378-48.788-187.15-140.091-204.426
						c-0.666-0.126-1.077,0.764-0.599,1.308c13.02,14.793,108.056,124.289,139.38,203.572
						C754.964,2255.682,756.139,2255.275,755.925,2254.343z"/>
					<path style="fill:#91B3FA;" d="M771.77,2298.589c0.833,0.341,1.398-0.877,0.678-1.463
						c-17.965-14.609-91.087-67.165-166.397-23.597C520.731,2322.888,673.604,2258.388,771.77,2298.589z"/>
					<path style="fill:#91B3FA;" d="M764.718,2267.736c0.29,3.007-3.43,3.96-4.483,1.144
						c-17.082-45.688-58.077-172.65-4.237-215.156C819.723,2003.413,749.688,2111.849,764.718,2267.736z"/>
					<path style="fill:#91B3FA;" d="M760.584,2268.054c5.323-30.569,29.295-126.667,116.681-90.687
						c1.474,0.607,1.4,2.968-0.11,3.318c-17.721,4.111-75.931,22.245-113.73,88.677
						C762.517,2270.956,760.258,2269.925,760.584,2268.054z"/>
					<path style="fill:#91B3FA;" d="M763.891,2274.989c0.817-18.484,14.168-57.417,116.355-39.938c0.613,0.104,0.615,1.107,0,1.133
						c-19.406,0.81-84.566,6.139-111.351,41.177C767.174,2279.613,763.758,2277.988,763.891,2274.989z"/>
				</g>
				<path style="fill:#91B3FA;" d="M870.565,2760.723c0.422-3.194-53.297-390.156-112.577-496.771L870.565,2760.723z"/>
			</g>
			<g>
				<path style="fill:#7D97F4;" d="M804.161,2700.39l135.945,4.598c8.91,0.301,15.049,13.952,12.569,27.949
					c-10.762,60.749-23.282,122.332-46.736,184.48c-4.332,11.479-12.08,18.506-20.259,18.23l-44.36-1.5
					c-8.056-0.272-15.205-7.692-18.634-19.313c-15.348-52.017-29.714-113.891-35.477-183.759
					C785.867,2714.813,793.986,2700.046,804.161,2700.39z"/>
			</g>
		</g>
		<g>
			<defs>
				
					<filter id="Adobe_OpacityMaskFilter" filterUnits="userSpaceOnUse" x="622.603" y="1002.572" width="1624.762" height="1595.983">
					<feColorMatrix  type="matrix" values="1 0 0 0 0  0 1 0 0 0  0 0 1 0 0  0 0 0 1 0"/>
				</filter>
			</defs>
			
				<mask maskUnits="userSpaceOnUse" x="622.603" y="1002.572" width="1624.762" height="1595.983" id="SVGID_00000134231356688815427760000016293892735621074869_">
				<g style="filter:url(#Adobe_OpacityMaskFilter);">
					
						<linearGradient id="SVGID_00000146460802462572237180000013425323445284492685_" gradientUnits="userSpaceOnUse" x1="1376.1696" y1="1101.4701" x2="1430.2053" y2="2443.3386">
						<stop  offset="0" style="stop-color:#FFFFFF"/>
						<stop  offset="0.0852" style="stop-color:#F7F7F7"/>
						<stop  offset="0.2167" style="stop-color:#E1E1E1"/>
						<stop  offset="0.3782" style="stop-color:#BEBEBE"/>
						<stop  offset="0.5632" style="stop-color:#8D8D8D"/>
						<stop  offset="0.7682" style="stop-color:#4E4E4E"/>
						<stop  offset="0.9872" style="stop-color:#020202"/>
						<stop  offset="0.993" style="stop-color:#000000"/>
					</linearGradient>
					<polygon style="fill:url(#SVGID_00000146460802462572237180000013425323445284492685_);" points="1554.254,1014.268 
						1497.347,1006.975 1497.347,1003.444 1479.803,1004.767 1462.375,1002.572 1462.375,1006.081 1404.65,1010.395 
						622.603,2598.556 2247.365,2525.448 					"/>
				</g>
			</mask>
			<polygon style="mask:url(#SVGID_00000134231356688815427760000016293892735621074869_);fill:#FFFFFF;" points="
				1554.254,1014.268 1497.347,1006.975 1497.347,1003.444 1479.803,1004.767 1462.375,1002.572 1462.375,1006.081 
				1404.65,1010.395 622.603,2598.556 2247.365,2525.448 			"/>
			<g>
				<path style="fill:#91B3FA;" d="M1480.781,973.757c0,1.723-1.192,3.084-2.761,3.039l0,0c-1.569-0.045-2.76-1.478-2.76-3.201
					V535.647c0-1.723,1.192-3.119,2.76-3.119l0,0c1.569,0,2.761,1.397,2.761,3.12V973.757z"/>
				<path style="fill:#91B3FA;" d="M1571.012,1032.251l-180.642-5.825c0-56.637,40.195-102.747,89.978-101.359
					C1530.34,926.46,1571.012,975.182,1571.012,1032.251z"/>
				<path style="fill:#7D97F4;" d="M1578.452,1031.393c0,3.032-2.138,5.42-4.774,5.334l-187.52-6.081
					c-2.594-0.084-4.697-2.59-4.697-5.596l0,0c0-3.007,2.103-5.377,4.697-5.294l187.52,5.995
					C1576.314,1025.836,1578.452,1028.362,1578.452,1031.393L1578.452,1031.393z"/>
			</g>
		</g>
		<g>
			<ellipse style="fill:#7D97F4;" cx="2040.897" cy="818.595" rx="81.455" ry="93.987"/>
			
				<linearGradient id="SVGID_00000088122128610839010520000017397537387762856119_" gradientUnits="userSpaceOnUse" x1="682.0239" y1="-347.3499" x2="1007.2552" y2="-347.3499" gradientTransform="matrix(-0.7931 -0.609 0.609 -0.7931 2775.9766 1352.9053)">
				<stop  offset="0" style="stop-color:#FEBBBA"/>
				<stop  offset="1" style="stop-color:#FF928E"/>
			</linearGradient>
			<path style="fill:url(#SVGID_00000088122128610839010520000017397537387762856119_);" d="M1689.146,1498.641
				c0,0-112.286-595.978,387.575-667.964c0,0,24.959-4.854,57.265,7.468c16.309,6.221,78.347,6.666,110.127,6.463
				c10.217-0.064,18.157,8.726,17.182,18.895l0,0c-0.762,7.97-5.533,15.001-12.655,18.657l-95.955,49.295
				c-23.705,2.283-80.05,4.636-85.978-18.429l0,0c-3.782-14.713-20.067-22.273-33.683-15.535
				c-69.425,34.356-259.814,202.474-191.285,546.447c2.577,12.931,10.527-19.329-1.424-13.761
				C1803.924,1447.131,1740.808,1516.619,1689.146,1498.641z"/>
			<g>
				
					<linearGradient id="SVGID_00000020383471002699995560000005130457093977750700_" gradientUnits="userSpaceOnUse" x1="1375.5121" y1="2188.7966" x2="99.3118" y2="4329.5234">
					<stop  offset="0" style="stop-color:#FEBBBA"/>
					<stop  offset="1" style="stop-color:#FF928E"/>
				</linearGradient>
				<path style="fill:url(#SVGID_00000020383471002699995560000005130457093977750700_);" d="M1123.88,2405.173
					c91.863-14.022,243.183-56.162,375.141-97.457c-39.671-62.262-75.792-126.351-111.162-191.714
					c-117.781,55.142-234.447,116.562-349.87,184.972c-8.146,3.631-15.208,9.061-20.809,15.729
					c-0.008-0.004-0.015-0.009-0.021-0.013c0,0-0.08,0.131-0.116,0.19c-3.8,4.561-6.944,9.675-9.211,15.244
					c-6.141,10.29-13.032,22.14-12.92,23.337c3.808,40.98,29.216,460.568,35.914,633.549c1.105,28.527-40.532,31.838-67.205,50.219
					c-38.904,24.748-82.515,42.719-124.061,62.05c-2.735,1.274-5.816,2.978-6.322,5.953c-0.888,5.211,6.248,7.573,11.528,7.817
					c53.138,2.45,110.445-10.774,163.912-16.714c36.302-4.034,72.604-8.07,108.905-12.102c4.293-0.706,12.49-8.865,13.23-13.167
					c3.018-17.517-3.652-31.034-12.18-45.639c-2.149-3.677-4.3-7.362-6.172-11.189c-10.116-20.676-7.998-39.184-6.054-61.096
					c2.18-24.592,4.363-49.184,6.543-73.776c5.5-61.985,10.997-123.97,16.497-185.955c4.595-51.784,9.188-103.569,13.783-155.353
					c1.215-13.706,2.431-27.414,3.646-41.118c2.478-27.954-3.157-56.029-16.216-80.87L1123.88,2405.173z"/>
				
					<linearGradient id="SVGID_00000180356208226640812900000007755677556105872007_" gradientUnits="userSpaceOnUse" x1="1719.5983" y1="2098.0935" x2="3132.9324" y2="3336.0015">
					<stop  offset="0" style="stop-color:#FEBBBA"/>
					<stop  offset="1" style="stop-color:#FF928E"/>
				</linearGradient>
				<path style="fill:url(#SVGID_00000180356208226640812900000007755677556105872007_);" d="M2885.617,3171.224
					c-8.724-52.744-76.536-89.351-113.456-120.984c-26.23-22.475-52.701-44.901-77.456-69.015
					c-41.122-40.057-181.005-242.2-238.069-308.744c-50.5-58.893-105.654-121.813-210.738-157.85
					c-69.263-114.133-165.997-233.969-282.087-360c-64.091,47.364-130.452,92.646-191.584,143.682l326.195,254.256
					c62.321,52.132,124.36,104.608,186.23,157.275c81.346,69.243,162.998,138.131,243.826,207.987
					c34.204,29.56,75.161,52.625,103.233,88.792c15.431,19.883,9.251,33.622,17.3,54.194c6.786,17.346,23.841,19.31,39.587,24.01
					c19.683,5.875,30.937,12.895,40.114,32.447c12.998,27.69,23.19,49.251,52.801,64.101c18.306,9.179,39.646,13.218,60.038,10.944
					c10.21-1.136,39.309-2.522,43.71-13.363C2886.245,3176.534,2886.043,3173.803,2885.617,3171.224z"/>
				
					<linearGradient id="SVGID_00000064324382746941807810000002552290259449352885_" gradientUnits="userSpaceOnUse" x1="1330.2194" y1="2140.0896" x2="2051.5967" y2="2140.0896">
					<stop  offset="0" style="stop-color:#09005D"/>
					<stop  offset="1" style="stop-color:#1A0F91"/>
				</linearGradient>
				<path style="fill:url(#SVGID_00000064324382746941807810000002552290259449352885_);" d="M1330.219,2143.425
					c24.613,7.79,41.275,18.688,51.265,26.385c25.908,19.961,39.935,44.942,57.723,72.453
					c10.017,15.492,19.406,31.386,28.427,47.476c9.548,17.031,10.348,30.403,30.208,24.513
					c39.156-11.611,77.614-27.89,116.114-41.611c28.443-10.136,69.226-25.464,98.402-9.693c21.148,11.432,41.9,30.217,61.916,44.103
					c30.325,21.038,60.551,42.221,90.679,63.54c25.434-73.771,89.176-111.444,186.642-117.399
					c-49.75-83.728-105.644-157.742-169.441-219.267l-77.04-89.922l-225.885-34.413c-32.634,53.801-22.081,92.452-44.63,134.986
					c-28.67,11.586-52.781,22.074-71.212,30.343c-22.413,10.056-42.606,19.116-68.732,32.557
					C1367.95,2121.214,1346.085,2133.85,1330.219,2143.425z"/>
			</g>
			
				<linearGradient id="SVGID_00000027562054428320036400000017733245083891469239_" gradientUnits="userSpaceOnUse" x1="4556.2168" y1="783.3929" x2="3566.2329" y2="1108.6724">
				<stop  offset="0" style="stop-color:#FF928E"/>
				<stop  offset="1" style="stop-color:#FE7062"/>
			</linearGradient>
			<path style="fill:url(#SVGID_00000027562054428320036400000017733245083891469239_);" d="M1830.884,1974.078
				c71.937-286.515,267.536-328.406,267.536-328.406c-26.625-78.209-85.036-153.582-132.256-205.617
				c-42.657-47.004-109.015-64.721-169.413-45.2c-66.452,21.477-128.651,65.7-161.054,117.406
				c-39.106,62.4-74.423,421.184-68.722,421.129C1566.974,1933.39,1633.447,2018.242,1830.884,1974.078z"/>
			<g>
				
					<linearGradient id="SVGID_00000010290354374737070940000000430411586480103835_" gradientUnits="userSpaceOnUse" x1="2039.0321" y1="1145.2509" x2="1984.5342" y2="1461.3386">
					<stop  offset="0" style="stop-color:#FEBBBA"/>
					<stop  offset="1" style="stop-color:#FF928E"/>
				</linearGradient>
				<path style="fill:url(#SVGID_00000010290354374737070940000000430411586480103835_);" d="M2105.978,1354.272
					c-22.105,25.299-44.211,50.598-66.317,75.897c-28.213,32.289-66.946,102.122-118.457,83.354
					c-35.142-12.804-48.924-65.231-34.058-97.503c1.369-2.971,3.507-5.524,5.853-7.803l124.439-120.826
					c9.873-9.586,24.898-11.48,36.841-4.645l43.418,24.852C2114.413,1317.164,2118.383,1339.538,2105.978,1354.272z"/>
				
					<linearGradient id="SVGID_00000043442262604846616920000013781479603074824584_" gradientUnits="userSpaceOnUse" x1="4682.7725" y1="-401.2868" x2="3668.561" y2="450.6519">
					<stop  offset="0" style="stop-color:#09005D"/>
					<stop  offset="1" style="stop-color:#1A0F91"/>
				</linearGradient>
				<path style="fill:url(#SVGID_00000043442262604846616920000013781479603074824584_);" d="M2256.158,1236.97
					c0,0,271.448,44.12,188.606,309.033c-82.842,264.911-95.043,356.937-15.663,343.476c-9.784,11.562-27.571,28.741-53.814,35.327
					c-49.923,12.53-94.488-22.296-117.858-40.56c-67.667-52.882-90.912-126.654-98.878-151.935
					C2095.296,1531.563,2237.49,1270.412,2256.158,1236.97z"/>
				
					<linearGradient id="SVGID_00000075152939828619083230000006635518465793149373_" gradientUnits="userSpaceOnUse" x1="5140.0039" y1="1427.3141" x2="5494.4863" y2="1668.0942" gradientTransform="matrix(0.8288 0.5595 -0.5595 0.8288 -1462.9629 -2904.7588)">
					<stop  offset="0" style="stop-color:#FEBBBA"/>
					<stop  offset="1" style="stop-color:#FF928E"/>
				</linearGradient>
				<path style="fill:url(#SVGID_00000075152939828619083230000006635518465793149373_);" d="M2144.061,1147.545
					c0,0-77.745-15.292-177.898,44.364c-100.153,59.657-96.681,120.761-61.833,152.35c34.846,31.589,93.123,69.699,192.287,54.428
					C2195.779,1383.414,2243.151,1170.352,2144.061,1147.545z"/>
				
					<linearGradient id="SVGID_00000046310081190712467610000009976660697204596865_" gradientUnits="userSpaceOnUse" x1="2185.3374" y1="1296.5959" x2="3699.8933" y2="3325.0168">
					<stop  offset="0" style="stop-color:#09005D"/>
					<stop  offset="1" style="stop-color:#1A0F91"/>
				</linearGradient>
				<path style="fill:url(#SVGID_00000046310081190712467610000009976660697204596865_);" d="M2087.092,1324.314
					c0,0,131.986-97.096,19.605-175.157l-39.638,2.396c0,0,6.626-100.76,97.771-88.513
					c91.143,12.247,172.699,111.175,139.653,222.801c-33.044,111.625-90.161,159.554-168.226,170.935
					c-18.339,2.674-41.018,3.404-55.041-11.863c-13.949-15.187-10.758-37.859-9.787-43.603c8.18-2.514,72.092-22.824,75.666-56.372
					c0.321-3.01,1.104-10.359-3.316-15.073c-11.81-12.595-52.066,2.9-52.066,2.9l0,0L2087.092,1324.314z"/>
			</g>
			
				<linearGradient id="SVGID_00000176017608923167887110000000583358968193960095_" gradientUnits="userSpaceOnUse" x1="1481.9938" y1="1891.4922" x2="1793.5062" y2="1891.4922" gradientTransform="matrix(0.9947 0.1033 -0.1033 0.9947 646.679 -122.3817)">
				<stop  offset="0" style="stop-color:#FEBBBA"/>
				<stop  offset="1" style="stop-color:#FF928E"/>
			</linearGradient>
			<path style="fill:url(#SVGID_00000176017608923167887110000000583358968193960095_);" d="M2069.929,1584.853
				c0,0,382.821,338.823-10.127,612.267c0,0-15.368,14.13-43.261,19.407c-14.082,2.664-57.661,29.036-79.799,42.846
				c-7.118,4.439-16.452,1.707-20.143-5.825l0,0c-2.895-5.902-2.583-12.871,0.826-18.491l62.441-102.945
				c15.597-11.792,37.456-10.474,51.521,3.107l0,0c8.973,8.663,23.614,6.946,30.238-3.623
				c33.777-53.888,170.104-254.485-92.108-426.515C1910.479,1666.35,2005.49,1540.028,2069.929,1584.853z"/>
			<g>
				
					<linearGradient id="SVGID_00000127025091030773843530000014012440625503266202_" gradientUnits="userSpaceOnUse" x1="2027.5264" y1="858.7598" x2="2177.0471" y2="858.7598">
					<stop  offset="0" style="stop-color:#4F52FF"/>
					<stop  offset="1" style="stop-color:#4042E2"/>
				</linearGradient>
				<path style="fill:url(#SVGID_00000127025091030773843530000014012440625503266202_);" d="M2145.659,919.748l-117.954-81.986
					c-1.772-20.713,9.593-39.13,37.542-39.991l111.8,43.305L2145.659,919.748z"/>
				<ellipse style="fill:#7D97F4;" cx="2225.08" cy="921.586" rx="87.796" ry="101.303"/>
				
					<linearGradient id="SVGID_00000042737871721136600210000017993835244796909219_" gradientUnits="userSpaceOnUse" x1="2156.4194" y1="923.837" x2="2332.011" y2="923.837">
					<stop  offset="0" style="stop-color:#4F52FF"/>
					<stop  offset="1" style="stop-color:#4042E2"/>
				</linearGradient>
				
					<ellipse style="fill:url(#SVGID_00000042737871721136600210000017993835244796909219_);" cx="2244.215" cy="923.837" rx="87.796" ry="101.303"/>
			</g>
		</g>
	</g>
</g>
</svg>
