<?xml version="1.0" encoding="utf-8"?>
<!-- Generator: Adobe Illustrator 27.5.0, SVG Export Plug-In . SVG Version: 6.00 Build 0)  -->
<svg version="1.1" id="Layer_1" xmlns="http://www.w3.org/2000/svg" xmlns:xlink="http://www.w3.org/1999/xlink" x="0px" y="0px"
	 viewBox="0 0 1200 1200" style="enable-background:new 0 0 1200 1200;" xml:space="preserve">
<rect style="fill:#FFFFFF;" width="1200" height="1200"/>
<g>
	<path style="fill:#ACD2EA;" d="M206.107,567.707c63.137-23.677,134.595-15.643,197.868,7.67
		c76.953,28.353,148.472,69.509,225.635,97.325c39.61,14.279,79.427,22.993,121.14,28.058c44.323,5.382,89.288-3.213,134.291,4.474
		c41.452,7.081,82.029,22.557,114.87,48.822c54.562,43.637,83.644,117.074,73.753,186.236
		c-7.396,51.717-36.474,100.808-80.651,128.696c-28.627,18.072-62.15,26.863-95.583,32.188
		c-81.134,12.922-162.26,5.116-241.112-16.615c-83.203-22.929-161.978-59.302-240.318-95.513
		c-79.373-36.689-158.746-73.378-238.119-110.066c-65.82-30.424-125.179-84.037-105.354-165.041
		C87.291,653.612,149.538,588.921,206.107,567.707z"/>
	<path style="fill:#C8E8F7;" d="M206.107,558.196c63.137-23.677,134.595-15.643,197.868,7.67
		c76.953,28.353,148.472,69.509,225.635,97.325c39.61,14.279,79.427,22.993,121.14,28.058c44.323,5.382,89.288-3.213,134.291,4.474
		c41.452,7.081,82.029,22.557,114.87,48.822c54.562,43.637,83.644,117.074,73.753,186.236
		c-7.396,51.717-36.474,100.808-80.651,128.696c-28.627,18.072-62.15,26.862-95.583,32.188
		c-81.134,12.922-162.26,5.116-241.112-16.615C573.116,1052.12,494.34,1015.747,416,979.536
		c-79.373-36.689-158.746-73.378-238.119-110.066c-65.82-30.424-125.179-84.037-105.354-165.041
		C87.291,644.101,149.538,579.41,206.107,558.196z"/>
	<path style="fill:#8EBADD;" d="M147.869,736.494l221.438-119.805c2.47-1.41,5.504-1.4,7.963,0.028l408.831,237.298
		c2.651,1.539,2.649,5.367-0.003,6.903L570.308,985.929c-3.708,2.148-8.28,2.15-11.99,0.006L149.037,749.387
		C146.371,747.846,145.195,738.021,147.869,736.494z"/>
	<linearGradient id="SVGID_1_" gradientUnits="userSpaceOnUse" x1="470.117" y1="797.2123" x2="761.4894" y2="1042.1338">
		<stop  offset="0" style="stop-color:#EDD2DD"/>
		<stop  offset="1" style="stop-color:#DCDCE9"/>
	</linearGradient>
	<path style="fill:url(#SVGID_1_);" d="M147.647,734.654L367.9,608.875c2.47-1.41,5.504-1.4,7.963,0.028l408.831,237.298
		c2.651,1.538,2.649,5.367-0.003,6.903L566.903,979.272c-2.472,1.432-5.52,1.434-7.993,0.004l-411.28-237.703
		C144.963,740.032,144.973,736.18,147.647,734.654z"/>
	<ellipse style="opacity:0.5;fill:#88B5DA;" cx="474.341" cy="838.482" rx="73.472" ry="35.098"/>
	
		<linearGradient id="SVGID_00000045618422316387097560000013261177355927730344_" gradientUnits="userSpaceOnUse" x1="669.5478" y1="961.4955" x2="829.0752" y2="1032.8138">
		<stop  offset="0.2917" style="stop-color:#AED3EB"/>
		<stop  offset="0.9374" style="stop-color:#91BCDE"/>
	</linearGradient>
	<path style="fill:url(#SVGID_00000045618422316387097560000013261177355927730344_);" d="M543.521,1064.785l117.124,66.29
		c2.521,1.427,5.609,1.417,8.12-0.027l314.872-181.033c2.745-1.578,2.739-5.539-0.01-7.11L866.39,875.939
		c-2.53-1.445-5.638-1.438-8.161,0.019l-314.738,181.714C540.746,1059.256,540.763,1063.224,543.521,1064.785z"/>
	<path style="fill:#3978B6;" d="M974.951,953.895l-0.166-81.674L662.33,1050.847l0.955,83.931l5.627-3.258l2.724-46.161
		c0.237-4.012,2.471-7.637,5.948-9.652l282.962-164.373c2.471-1.432,5.603,0.121,5.959,2.954l5.217,41.477L974.951,953.895z"/>
	<path style="fill:#6095C7;" d="M541.839,984.123l0.475,81.352l3.965,2.266l2.301-43.725c0.156-2.956,3.362-4.719,5.941-3.268
		l97.086,54.637c2.379,1.339,3.908,3.8,4.055,6.525l2.697,50.051l4.927,2.815l3.167-99.588l-124.004-55.64L541.839,984.123z"/>
	<g>
		<ellipse style="fill:#8CB8DB;" cx="980.492" cy="826.4" rx="29.135" ry="13.918"/>
		<ellipse style="fill:#FF826A;" cx="980.492" cy="802.358" rx="34.239" ry="28.977"/>
		<path style="fill:#DD4531;" d="M998.899,785.193c0,4.349-8.514,7.875-19.017,7.875c-10.503,0-19.017-3.526-19.017-7.875
			c0-4.349,8.514-7.875,19.017-7.875C990.385,777.318,998.899,780.844,998.899,785.193z"/>
		<path style="fill:#F75F4B;" d="M998.904,785.193c0,0.503-0.12,0.995-0.339,1.477c-1.663-4.036-9.406-7.098-18.681-7.098
			s-17.019,3.063-18.681,7.098c-0.219-0.481-0.339-0.973-0.339-1.477c0-4.353,8.52-7.875,19.02-7.875
			S998.904,780.84,998.904,785.193z"/>
	</g>
	<g>
		<g>
			
				<linearGradient id="SVGID_00000149373973361363958970000010441487870240940461_" gradientUnits="userSpaceOnUse" x1="480.4153" y1="177.0564" x2="512.3207" y2="291.5409">
				<stop  offset="0" style="stop-color:#FFAA85"/>
				<stop  offset="1" style="stop-color:#FB9B69"/>
			</linearGradient>
			<path style="fill:url(#SVGID_00000149373973361363958970000010441487870240940461_);" d="M548.313,308.411
				c0,0,20.178-76.878-3.208-130.452c-13.388-24.048-97.909-60.232-104.353-63.636s-15.014-10.224-20.058-12.14
				c-5.044-1.916-23.167-5.571-25.454,0.704c-2.287,6.275,8.299,15.073,17.36,18.533c9.061,3.46,13.108,1.114,19.706,2.815
				c6.598,1.701,75.055,37.225,93.253,62.873c18.198,25.648,4.047,97.359,4.047,97.359L548.313,308.411z"/>
			<path style="opacity:0.57;fill:#ED8456;" d="M554.955,268.937l-0.466,4.354l-11.335,4.18l-10.61-12.085l1.146-10.78
				c0,0,7.589,10.995,13.138,13.408C551.38,269.993,554.955,268.937,554.955,268.937z"/>
			<path style="fill:#F75F4B;" d="M554.49,273.291c-2.391,20.701-6.176,35.12-6.176,35.12l-18.707-23.945
				c0,0,1.708-8.654,3.174-21.025c0,0,8.644,8.958,13.072,9.999C550.281,274.48,554.49,273.291,554.49,273.291z"/>
		</g>
		<path style="fill:#FFBA94;" d="M480.868,303.644c0,0,35.6-22.456,50.204-23.401c14.604-0.945,20.615,39.559,18.416,48.797
			c-2.199,9.237-8.797,13.49-8.797,13.49s-3.871,20.879-9.736,40.82c-5.865,19.941-28.093,55.248-28.093,55.248
			s-16.246,1.29-33.254-9.501c-9.619-6.803-12.316-21.994-12.316-21.994s5.278-0.528,9.149-5.454
			c3.871-4.927,2.639-69.148,2.639-69.148L480.868,303.644z"/>
		<path style="fill:#FFBA94;" d="M502.862,438.597c0,0-8.973,11.965-13.724,24.809c-4.751,12.844,10.498,135.657,7.566,158.706
			c-2.267,17.821-37.419,182.225-31.202,198.06c5.279,9.149,34.721,30.732,36.48,33.078c1.759,2.346-5.161,3.754-12.199,3.754
			c-7.038,0-39.618-19.794-44.105-28.944c-3.534-7.207,3.167-100.907,7.39-137.856c4.223-36.949,10.762-48.386,10.557-64.046
			c-0.205-15.659-39.647-158.12-39.647-158.12s-8.211-23.46,7.273-38.943c15.484-15.484,29.208-14.376,29.208-14.376
			L502.862,438.597z"/>
		
			<linearGradient id="SVGID_00000132088986342296314660000008077073677224448941_" gradientUnits="userSpaceOnUse" x1="401.2113" y1="336.5846" x2="468.0722" y2="40.9894">
			<stop  offset="0.4941" style="stop-color:#FFBA94"/>
			<stop  offset="0.8125" style="stop-color:#FB9B69"/>
		</linearGradient>
		<path style="fill:url(#SVGID_00000132088986342296314660000008077073677224448941_);" d="M457.291,407.102
			c0,0-5.748-4.106-12.551-5.454c-10.381-1.818-16.198,2.815-22.937,0c-6.74-2.815-54.715-56.187-56.827-89.03
			c-0.938-19.706,4.076-25.601,7.771-50.234c3.695-24.633-1.789-60.615,5.015-77.506c4.575-7.507,14.538-15.377,16.422-21.114
			c2.508-7.639,0.425-9.061,3.812-16.451c7.03-15.338,19.589-32.287,9.853-35.102s-39.471,61.406-39.471,61.406
			s-32.844,70.732-32.844,149.205c12.668,94.309,89.566,149.284,89.566,149.284l35.358-57.387L457.291,407.102z"/>
		<path style="fill:#FB9B69;" d="M447.199,758.825l-0.21,3.174c0,0,6.388,11.747,15.625,13.507c5.103,0.792,6.742-3.594,6.742-3.594
			l0.68-4.348L447.199,758.825z"/>
		<path style="fill:#FB9B69;" d="M356.072,205.696c0,0,0.964,3.874,5.797,5.407c3.739,1.186,12.262,0.751,12.262,0.751v3.604
			l-16.529,5.015l-3.708-7.992L356.072,205.696z"/>
		<path style="fill:#25A1DF;" d="M353.953,212.29c-8.819,27.946-18.419,68.108-18.419,110.533
			c12.668,94.309,89.566,149.284,89.566,149.284l11.763-19.092l23.595-38.295l-3.167-7.617c0,0-5.748-4.106-12.551-5.454
			c-10.381-1.818-16.198,2.815-22.937,0c-6.74-2.815-54.715-56.187-56.827-89.03c-0.938-19.706,4.076-25.601,7.771-50.234
			c2.134-14.229,1.206-32.244,1.352-48.179c0,0-3.867,1.793-11.052,1.177S353.953,212.29,353.953,212.29z"/>
		<path style="fill:#1C88B7;" d="M428.917,402.447c0,0-4.572,1.534-6.32,5.003c-0.827,1.641-5.305-5.431-7.302-9.237
			c-0.602-1.147-0.915-2.868-0.915-2.868s0.417,0.408,1.806,1.773c1.351,1.328,4.462,3.906,5.53,4.485
			C423.969,402.569,426.497,402.708,428.917,402.447z"/>
		<path style="fill:#1C88B7;" d="M358.567,214.631c-3.545-0.956-4.614-2.341-4.614-2.341
			c-8.819,27.946-18.419,68.108-18.419,110.533c12.668,94.309,89.566,149.284,89.566,149.284l11.763-19.092l22.649-33.658
			c0,0-14.449-6.888-28.261,3.229c-10.818,7.924-12.799,15.438-16.275,18.915c-3.806,3.806-65.768-68.159-72.491-119.03
			C343.804,273.029,358.567,214.631,358.567,214.631z"/>
		<path style="fill:#FB9B69;" d="M468.886,426.839c-8.416-7.224-11.595-19.737-11.595-19.737s5.278-0.528,9.149-5.454
			c3.871-4.927,2.639-69.148,2.639-69.148l11.789-28.856c0,0,8.974-1.253,13.02,18.651c4.047,19.904-7.771,77.125-12.199,86.86
			C477.262,418.891,468.886,426.839,468.886,426.839z"/>
		<path style="opacity:0.28;fill:#F75F4B;" d="M468.527,388.105c0,0,1.521,8.616,16.583,9.941
			c27.899,1.138,47.223-19.523,47.223-19.523l1.434-5.328l-46.193,13.794l-18.801-3.699L468.527,388.105z"/>
		<path style="fill:#30B7F1;" d="M447.098,760.333c1.739-26.209,4.098-53.746,5.97-70.128c4.223-36.949,10.762-48.386,10.557-64.046
			c-0.205-15.659-39.647-158.12-39.647-158.12s-8.211-23.46,7.273-38.943c15.484-15.484,29.208-14.376,29.208-14.376l42.404,23.878
			c0,0-8.973,11.965-13.724,24.809c-4.751,12.844,10.498,135.657,7.566,158.706c-1.533,12.045-18.087,91.052-26.738,145.891
			c0,0-1.708,3.373-7.634,2.083c-2.945-0.641-6.222-2.581-8.979-4.563C449.793,762.964,447.098,760.333,447.098,760.333z"/>
		<path style="fill:#25A1DF;" d="M453.353,765.523c-3.56-2.559-6.255-5.19-6.255-5.19c1.739-26.209,4.098-53.746,5.97-70.128
			c4.223-36.949,10.762-48.386,10.557-64.046c-0.205-15.659-39.647-158.12-39.647-158.12s-8.211-23.46,7.273-38.943
			c15.484-15.484,29.208-14.376,29.208-14.376s1.59,0.075,3.673,0.36c4.51,0.617,9.214,6.367,9.322,6.169
			c0.197-0.361-0.449,0.753-0.796,1.161c-5.818,6.837-16.422,18.475-20.293,33.9c-5.542,23.02,23.46,158.472,23.46,165.862
			C476.646,631.438,453.353,765.523,453.353,765.523z"/>
		<path style="fill:#1C88B7;" d="M453.473,765.366c-0.03,0-0.061-0.003-0.091-0.008c-0.287-0.049-0.48-0.323-0.43-0.61
			c8.596-49.597,22.976-135.43,22.347-142.529c-0.002-2.011-2.169-13.605-5.168-29.652c-8.355-44.703-22.339-119.525-18.28-136.382
			c3.659-14.579,13.421-25.966,19.253-32.771l1.151-1.347c0.219-0.257,0.402-0.505,0.55-0.745c0.152-0.249,0.476-0.329,0.727-0.173
			c0.248,0.153,0.325,0.478,0.172,0.726c-0.174,0.282-0.388,0.573-0.644,0.876l-1.155,1.351
			c-5.772,6.733-15.433,18.003-19.029,32.335c-4.005,16.634,10.5,94.241,18.293,135.936c3.122,16.703,5.184,27.737,5.184,29.799
			c0.784,8.826-19.989,129.074-22.36,142.757C453.948,765.184,453.725,765.366,453.473,765.366z"/>
		<path style="fill:#1C88B7;" d="M459.652,414.702c-2.857-4.731-2.857-7.936-2.857-7.936l4.061-0.878c0,0,1.36,3.28,3.854,6.501
			c1.79,2.312,1.665,3.78,9.149,8.93c7.484,5.15,29.711,16.105,29.711,16.105l-0.62,1.031l-0.535,0.752
			C502.416,439.207,474.432,430.821,459.652,414.702z"/>
		<path style="fill:#FF826A;" d="M533.308,374.936c4.526-16.991,7.384-32.408,7.384-32.408s6.598-4.252,8.797-13.49
			c2.199-9.237-3.812-49.742-18.416-48.797c-14.604,0.945-50.204,23.401-50.204,23.401L469.08,332.5c0,0,0.618,32.24-0.398,52.787
			c0,0,4.594,6.036,17.833,6.917C517.701,390.27,533.308,374.936,533.308,374.936z"/>
		<path style="fill:#F75F4B;" d="M486.515,392.204c-13.239-0.881-17.833-6.917-17.833-6.917c1.016-20.546,0.398-52.787,0.398-52.787
			l11.789-28.856c0,0,7.977,7.331,13.02,18.651C498.933,333.614,486.515,392.204,486.515,392.204z"/>
		<path style="opacity:0.28;fill:#DD4531;" d="M493.698,319.665c0,0,3.343,17.727-9.091,21.832
			c-15.092,4.983-15.172-9.869-15.172-9.869L493.698,319.665z"/>
		<path style="fill:#F75F4B;" d="M540.691,342.529c0,0-25.894,9.325-25.219,11.613c0.674,2.287,24.111-6.008,24.111-6.008
			L540.691,342.529z"/>
		<path style="fill:#FFBA94;" d="M504.431,291.293c-5.219,1.408-1.408,16.01,13.137,12.901c8.387-2.429,6.383-11.739,4.106-12.989
			C519.397,289.955,506.741,290.67,504.431,291.293z"/>
		<path style="fill:#F75F4B;" d="M522.013,290.588c0.924,0.449,1.358,1.137,1.79,1.809c0.391,0.684,0.689,1.411,0.87,2.162
			c0.389,1.496,0.445,3.107,0.068,4.692c-0.375,1.579-1.221,3.12-2.448,4.277c-1.224,1.18-2.729,1.875-4.228,2.378
			c-2.332,0.53-4.69,0.683-7.033,0.278c-2.341-0.389-4.63-1.462-6.423-3.087c-1.767-1.651-3.047-3.81-3.448-6.202
			c-0.194-1.191-0.195-2.45,0.238-3.681c0.222-0.605,0.549-1.21,1.057-1.689c0.5-0.479,1.149-0.794,1.793-0.913
			c0.383-0.07,0.75,0.183,0.82,0.565c0.059,0.321-0.109,0.631-0.391,0.764c-1.501,0.71-1.552,2.706-1.008,4.373
			c0.538,1.705,1.661,3.234,3.056,4.322c1.393,1.118,3.097,1.755,4.886,2.043c1.8,0.272,3.697,0.121,5.585-0.23l-0.123,0.031
			c1.086-0.374,2.146-0.781,2.965-1.465c0.798-0.692,1.445-1.556,1.83-2.608c0.393-1.044,0.55-2.24,0.471-3.439
			c-0.07-1.157-0.419-2.507-1.003-3.149l-0.135-0.149c-0.256-0.282-0.236-0.719,0.046-0.975
			C521.461,290.503,521.767,290.469,522.013,290.588z"/>
		<path style="fill:#492E2E;" d="M544.421,222.276c2.971,5.252-4.683,18.8-4.683,18.8l-3.343-16.627
			C536.394,224.449,541.45,217.024,544.421,222.276z"/>
		<g>
			<path style="fill:#FFAA85;" d="M527.657,275.112c0,0-6.015,18.677-6.948,20.769c-1.133,2.539-3.039,5.545-7.086,5.734
				c-5.512,0.257-10.304-3.762-9.998-6.455c2.227-25.552-4.413-35.163-4.413-35.163L527.657,275.112z"/>
			<path style="fill:#FB9B69;" d="M526.228,280.406l-1.514,3.797c0,0-1.244,4.221-3.466,4.221c-8.578,0-12.061-17.067-12.061-17.067
				L526.228,280.406z"/>
			<path style="fill:#FFBA94;" d="M530.667,281.136c13.87-2.727,9.599-39.444,9.247-45.075c-0.352-5.63,1.114-8.739,1.114-14.721
				s-8.328-9.56-23.225-7.976c-22.756,2.111-16.604,33.74-16.604,33.74s-3.718-6.38-7.794-1.365
				c-4.076,5.015,11.261,23.695,11.261,23.695S518.174,282.368,530.667,281.136z"/>
			<path style="fill:#FB9B69;" d="M504.741,270.262c1.962,0.39-1.143-8.973-1.131-17.502c0.013-8.872,2.001-17.28,3.616-18.171
				c3.167-1.747,8.28-1.026,10.87-2.081c2.59-1.056,2.839-2.1,6.417-3.123c3.578-1.023,10.833,2.452,15.154-1.298
				c1.72-1.529,0.872-9.216,0.872-9.216s-28.915-5.191-39.23,0C490.995,224.062,490.137,267.36,504.741,270.262z"/>
			
				<linearGradient id="SVGID_00000126305780999157199280000015553723036853315714_" gradientUnits="userSpaceOnUse" x1="474.4258" y1="178.7471" x2="479.8216" y2="221.6788">
				<stop  offset="0.2058" style="stop-color:#6D4141"/>
				<stop  offset="0.2686" style="stop-color:#683E3E"/>
				<stop  offset="0.597" style="stop-color:#513232"/>
				<stop  offset="0.8056" style="stop-color:#492E2E"/>
			</linearGradient>
			<path style="fill:url(#SVGID_00000126305780999157199280000015553723036853315714_);" d="M502.084,194.831
				c0-5.924-32.609-26.979-45.512,2.111c-14.545,37.301,23.46,46.979,29.56,44.134C492.231,238.232,502.084,200.755,502.084,194.831
				z"/>
			
				<linearGradient id="SVGID_00000021841286897614775980000003937516924700559772_" gradientUnits="userSpaceOnUse" x1="477.1525" y1="188.2052" x2="493.3479" y2="255.7372">
				<stop  offset="0.3912" style="stop-color:#603838"/>
				<stop  offset="1" style="stop-color:#492E2E"/>
			</linearGradient>
			<path style="fill:url(#SVGID_00000021841286897614775980000003937516924700559772_);" d="M504.883,279.428
				c0,0-8.109-2.634-12.537-8.352c-4.428-5.718-12.739-24.332-12.551-29.999c0.971-29.348,11.088-32.216,11.088-32.216
				s11.587,37.752,10.491,38.525c-1.096,0.773-3.207-4.945-6.485-2.734c-5.344,4.211,9.826,23.962,9.826,23.962L504.883,279.428z"/>
			
				<linearGradient id="SVGID_00000105424185000127131730000003379800007078431900_" gradientUnits="userSpaceOnUse" x1="532.306" y1="245.4243" x2="533.8895" y2="261.4358">
				<stop  offset="0" style="stop-color:#FFBA94"/>
				<stop  offset="1" style="stop-color:#F18B59"/>
			</linearGradient>
			<path style="fill:url(#SVGID_00000105424185000127131730000003379800007078431900_);" d="M531.586,249.394
				c1.091,0,1.503,6.052,2.024,7.381c0.971,2.479,2.669,1.927,3.101,3.739c0.385,1.613-1.276,3.298-3.863,2.021
				C529.252,260.76,530.494,249.394,531.586,249.394z"/>
			<path style="fill:#FF826A;" d="M529.064,269.852l8.514-2.554c0,0-0.491,4.748-3.045,5.206
				C531.291,273.028,529.064,269.852,529.064,269.852z"/>
			<path style="fill:#453FAF;" d="M524.905,250.368c0,1.856-1.037,3.361-2.316,3.361c-1.279,0-2.316-1.505-2.316-3.361
				c0-1.856,1.037-3.361,2.316-3.361C523.868,247.007,524.905,248.512,524.905,250.368z"/>
			<path style="fill:#453FAF;" d="M539.732,247.473c0,1.599-0.786,2.895-1.756,2.895s-1.756-1.296-1.756-2.895
				c0-1.599,0.786-2.895,1.756-2.895S539.732,245.874,539.732,247.473z"/>
			<path style="fill:#603838;" d="M525.702,239.864c-0.306-1.703-6.363,0.513-6.363,0.513s-4.988,1.626-4.464,3.111
				C515.399,244.972,526.008,241.566,525.702,239.864z"/>
			<path style="fill:#603838;" d="M542.816,238.965c0.237-1.335-2.835-1.771-4.603-1.662c-1.768,0.109-3.826,0.442-3.855,1.67
				C534.33,240.199,542.579,240.3,542.816,238.965z"/>
			<path style="fill:#F75F4B;" d="M529.064,269.852l8.514-2.554c0,0-1.244,2.882-3.471,3.34
				C531.88,271.096,529.064,269.852,529.064,269.852z"/>
			
				<linearGradient id="SVGID_00000109025259984314362310000010994844619687357626_" gradientUnits="userSpaceOnUse" x1="494.3422" y1="238.9899" x2="506.9174" y2="216.1749">
				<stop  offset="0.3912" style="stop-color:#603838"/>
				<stop  offset="1" style="stop-color:#492E2E"/>
			</linearGradient>
			<path style="fill:url(#SVGID_00000109025259984314362310000010994844619687357626_);" d="M521.349,225.773
				c-3.254,3.544-15.687,2.078-17.74,3.661c-2.053,1.584-0.669,17.951-2.235,17.951c-1.056,0-9.179-8.508-10.639-18.714
				c-1.46-10.205,0-18.975,0-18.975S524.603,222.229,521.349,225.773z"/>
			
				<linearGradient id="SVGID_00000141422520219344315880000008703118945832121019_" gradientUnits="userSpaceOnUse" x1="501.4525" y1="215.3557" x2="541.569" y2="203.3911">
				<stop  offset="0.3961" style="stop-color:#603838"/>
				<stop  offset="1" style="stop-color:#7C4C47"/>
			</linearGradient>
			<path style="fill:url(#SVGID_00000141422520219344315880000008703118945832121019_);" d="M542.96,223.564
				c-19.09,10.968-52.136-10.575-52.136-10.575s-4.105-3.224,1.056-11.414c8.474-13.447,30.439-8.622,37.917-4.663
				C535.138,199.741,553.194,216.468,542.96,223.564z"/>
			<path style="fill:#F48A5B;" d="M496.933,250.042c-0.112,0.49-0.049,1.002,0.05,1.494c0.377,1.859,1.29,3.605,2.601,4.975
				c0.231,0.242,0.483,0.478,0.794,0.601c0.311,0.123,0.696,0.112,0.948-0.108c0.243-0.212,0.312-0.558,0.345-0.88
				c0.174-1.689-0.293-3.414-1.215-4.831C499.801,250.283,497.506,247.532,496.933,250.042z"/>
		</g>
		<g>
			<path style="fill:#FFBA94;" d="M472.35,332.23c9.619,5.601,14.887-3.079,17.712-8.094c2.825-5.015,3.284-11.613,3.284-16.891
				c0-5.279,8.922-88.058,3.735-108.292c-12.518-40.292-67.434-83.23-74.188-87.711c-8.885-5.894-29.182-11.436-30.351-4.839
				c-1.232,6.95,5.103,13.196,12.668,17.595c11.481,5.498,7.654-1.232,21.818,7.038c11.296,6.595,47,58.379,51.223,73.84
				C482.474,220.338,462.731,326.629,472.35,332.23z"/>
			<path style="fill:#FB9B69;" d="M496.963,295.464l-0.345,6.308l-14.729,0.288l-10.978-14.904l1.109-9.715
				c0,0,5.55,10.631,13.292,14.721C490.693,295.007,496.963,295.464,496.963,295.464z"/>
			
				<linearGradient id="SVGID_00000165214098149430670450000016586884868808482729_" gradientUnits="userSpaceOnUse" x1="480.1789" y1="345.6485" x2="484.0887" y2="286.0996">
				<stop  offset="0.4375" style="stop-color:#F75F4B"/>
				<stop  offset="1" style="stop-color:#FF826A"/>
			</linearGradient>
			<path style="fill:url(#SVGID_00000165214098149430670450000016586884868808482729_);" d="M471.053,285.877
				c-2.751,24.536-4.262,45.58-0.155,47.971c9.619,5.601,18.171-3.196,20.996-8.211c2.825-5.014,4.458-12.844,4.458-18.123
				c0-0.874,0.162-3.882,0.41-8.384c0,0-6.128,1.17-12.374-1.293C478.141,295.374,471.053,285.877,471.053,285.877z"/>
		</g>
	</g>
	<g>
		
			<linearGradient id="SVGID_00000094599011442365127270000001922375029593458865_" gradientUnits="userSpaceOnUse" x1="973.3981" y1="603.5322" x2="975.7442" y2="750.8607">
			<stop  offset="0" style="stop-color:#568DC3"/>
			<stop  offset="0.7943" style="stop-color:#3978B6"/>
			<stop  offset="1" style="stop-color:#3977AA"/>
		</linearGradient>
		<path style="fill:url(#SVGID_00000094599011442365127270000001922375029593458865_);" d="M959.893,583.575
			c-4.914,34.334-2.681,69.29,1.183,103.758c3.502,31.238,8.332,62.311,13.161,93.372c0.499,3.211,1.726,7.17,4.951,7.563
			c3.86,0.469,5.763-4.505,6.279-8.359c8.757-65.473,7.85-132.231-2.685-197.442c-0.957-5.922-4.568-19.375-13.273-17.743
			C962.746,565.991,960.657,578.234,959.893,583.575z"/>
		
			<linearGradient id="SVGID_00000130615374633978724150000002951662913887224980_" gradientUnits="userSpaceOnUse" x1="945.8326" y1="634.3749" x2="948.2958" y2="747.3342">
			<stop  offset="0.0135" style="stop-color:#63A1D3"/>
			<stop  offset="0.4541" style="stop-color:#568DC3"/>
			<stop  offset="0.7943" style="stop-color:#3978B6"/>
		</linearGradient>
		<path style="fill:url(#SVGID_00000130615374633978724150000002951662913887224980_);" d="M926.735,666.101
			c0.925,8.974,3.248,18.049,8.558,25.343c5.31,7.293,14.018,12.534,23.02,11.932c4.544-0.304,9.875-3.6,8.909-8.051
			c-0.788-3.631-5.051-5.034-8.273-6.885c-7.218-4.145-10.719-12.777-11.62-21.052c-0.93-8.54,5.088-47.486-9.789-47.498
			C924.127,619.88,925.768,656.724,926.735,666.101z"/>
		
			<linearGradient id="SVGID_00000139977637177825134540000013948194549739671717_" gradientUnits="userSpaceOnUse" x1="1011.0409" y1="599.5251" x2="996.4957" y2="649.2602">
			<stop  offset="0" style="stop-color:#568DC3"/>
			<stop  offset="0.7943" style="stop-color:#3978B6"/>
		</linearGradient>
		<path style="fill:url(#SVGID_00000139977637177825134540000013948194549739671717_);" d="M1000.198,616.286
			c-0.248-2.838-0.972-5.7-0.451-8.501c0.521-2.801,2.86-5.576,5.695-5.291c1.978,0.199,3.518,1.78,4.684,3.39
			c5.807,8.026,5.535,19.626,1.738,28.11c-4.596,10.268-22.36,19.737-24.617,10.529c-1.128-4.604,6.456-8.522,8.704-11.896
			C999.126,627.864,1000.697,621.999,1000.198,616.286z"/>
		<path style="fill:#63A1D3;" d="M954.705,584.255c0.779,2.44,2.426,5.212,4.984,5.089c2.432-0.117,4.224-2.823,4.917-5.157
			c1.576-5.311,4.047-27.14-4.575-27.14C949.806,557.047,952.885,578.558,954.705,584.255z"/>
		<path style="fill:#8CB8DB;" d="M918.873,667.772c0.454,1.488,1.071,2.973,2.148,4.095c1.077,1.123,2.695,1.828,4.211,1.477
			c1.581-0.366,2.549-1.626,3.151-3.173c0.485-1.246,0.732-2.677,0.869-3.977c0.29-2.751,0.58-5.502,0.87-8.253
			c0.61-5.787-1.245-12.371-7.332-7.207C917.902,654.882,917.123,662.032,918.873,667.772z"/>
		<path style="fill:#63A1D3;" d="M1009.739,597.041c-0.817,1.435-0.951,3.147-1.065,4.795c-0.172,2.477-0.345,4.955-0.517,7.432
			c-0.107,1.534-0.21,3.103,0.192,4.587c0.402,1.485,1.411,2.896,2.878,3.358c1.903,0.599,4-0.593,5.088-2.265
			c1.088-1.672,1.4-3.716,1.686-5.69c0.394-2.714,0.787-5.486,0.288-8.182C1017.592,597.307,1012.866,591.551,1009.739,597.041z"/>
		<path style="fill:#8CB8DB;" d="M969.564,538.23c0.333,2.94,1.262,6.566,4.166,7.133c2.989,0.584,5.284-2.717,5.949-5.689
			c0.834-3.725,0.958-13.289-4.155-14.493C968.809,523.601,969.126,534.366,969.564,538.23z"/>
	</g>
	<path style="fill:#336FA0;" d="M544.625,981.683c-0.16,0.731-0.113,1.42,0.151,2.087c0.128,0.332,0.299,0.658,0.509,0.966
		c0.19,0.28,0.505,0.656,0.656,0.754c0,0-0.537-0.441-0.537-0.441l107.06,61.628l6.691,3.852l0.407,0.232l0.311,0.163
		c0.217,0.099,0.436,0.192,0.662,0.269c0.451,0.152,0.921,0.25,1.395,0.291c0.95,0.082,1.918-0.069,2.797-0.436
		c0.218-0.095,0.433-0.199,0.645-0.32l0.823-0.471l1.673-0.963l3.346-1.925l6.693-3.85l26.77-15.402l53.54-30.804l214.162-123.215
		l-0.62,0.563c0.107-0.012,0.391-0.371,0.565-0.622c0.196-0.283,0.374-0.597,0.532-0.93c0.308-0.668,0.534-1.413,0.661-2.2
		c0.092-0.569,0.592-0.93,1.123-0.844c0.402,0.065,0.707,0.368,0.794,0.742c0.213,0.923,0.316,1.9,0.277,2.909
		c-0.024,0.504-0.083,1.016-0.19,1.534c-0.131,0.548-0.205,0.974-0.568,1.678c-0.103,0.199-0.257,0.355-0.438,0.459l-0.182,0.105
		l-214.079,123.343l-53.52,30.836l-26.76,15.418l-6.69,3.854l-3.345,1.927l-1.673,0.964l-0.851,0.488
		c-0.348,0.198-0.711,0.376-1.084,0.537c-1.495,0.628-3.141,0.887-4.755,0.748c-0.807-0.069-1.606-0.235-2.374-0.495
		c-0.384-0.13-0.758-0.287-1.126-0.458l-0.544-0.284l-0.432-0.246l-6.694-3.848l-107.109-61.568
		c-0.216-0.124-0.394-0.276-0.538-0.442c-0.497-0.694-0.717-1.196-0.977-1.833c-0.235-0.611-0.404-1.256-0.49-1.922
		c-0.192-1.329,0.057-2.762,0.649-3.928c0.363-0.714,1.236-0.999,1.95-0.636c0.602,0.305,0.899,0.973,0.761,1.603L544.625,981.683z"
		/>
	<path style="fill:#568DC3;" d="M544.339,986.9l114.062,64.557c2.455,1.39,5.462,1.38,7.908-0.027l306.641-176.3
		c2.673-1.537,2.663-8.741-0.014-10.271l-114.169-61.87c-2.464-1.407-5.491-1.401-7.948,0.018L543.563,976.295
		C540.889,977.838,541.652,985.38,544.339,986.9z"/>
	
		<linearGradient id="SVGID_00000062872336425642483130000007367892074695371964_" gradientUnits="userSpaceOnUse" x1="837.5458" y1="1042.2975" x2="738.5253" y2="893.8864">
		<stop  offset="0" style="stop-color:#5B91C5"/>
		<stop  offset="0.9374" style="stop-color:#9EC6E4"/>
	</linearGradient>
	<path style="fill:url(#SVGID_00000062872336425642483130000007367892074695371964_);" d="M543.864,982.661l114.062,64.557
		c2.455,1.39,5.462,1.38,7.908-0.027l306.641-176.3c2.673-1.537,2.667-5.395-0.01-6.924l-114.174-65.216
		c-2.464-1.408-5.49-1.401-7.948,0.018L543.834,975.733C541.161,977.277,541.177,981.141,543.864,982.661z"/>
	<path style="opacity:0.35;fill:#3977AA;" d="M691.536,941.421l59.804,33.93c1.261,0.714,2.804,0.708,4.06-0.014l113.391-65.2
		c1.372-0.789,1.37-2.77-0.005-3.555l-59.861-34.269c-1.265-0.723-2.819-0.719-4.081,0.009l-113.323,65.541
		C690.148,938.657,690.157,940.641,691.536,941.421z"/>
	<g>
		<path style="fill:#568DC3;" d="M694.797,938.608l54.946,32.867c0.716,0.428,1.608,0.437,2.332,0.023l102.292-58.529
			c0,0,1.409-1.552,0.073-3.509c-0.954-0.203-60.326-31.024-60.326-31.024c-0.715-0.41-1.593-0.407-2.306,0.005l-97.616,53.528
			C692.669,932.852,693.286,937.704,694.797,938.608z"/>
		
			<linearGradient id="SVGID_00000160186361048279898280000008871089300405760146_" gradientUnits="userSpaceOnUse" x1="722.5677" y1="904.1177" x2="795.3828" y2="930.3024">
			<stop  offset="0.1863" style="stop-color:#AFD4EC"/>
			<stop  offset="1" style="stop-color:#568DC3"/>
		</linearGradient>
		<path style="fill:url(#SVGID_00000160186361048279898280000008871089300405760146_);" d="M694.797,935.401l56.105,33.56
			l103.464-59.2l-60.253-34.532c-0.715-0.41-1.593-0.407-2.306,0.005l-96.982,56.186
			C693.302,932.303,693.286,934.497,694.797,935.401z"/>
		<path style="fill:#6095C7;" d="M720.657,943.048l27.622,16.523c0.579,0.347,1.302,0.35,1.884,0.008l82.858-48.675
			c0.612-0.359,0.607-1.245-0.008-1.598l-29.293-16.788c-0.364-0.208-0.811-0.207-1.174,0.003l-81.876,48.502
			C719.896,941.471,719.888,942.588,720.657,943.048z"/>
		<g>
			<path style="fill:#8CB8DB;" d="M755.664,949.716l2.504,1.501c0.077,0.046,0.173,0.046,0.251,0.001l2.651-1.508
				c0.081-0.048,0.081-0.165-0.001-0.212l-2.726-1.536c-0.049-0.028-0.108-0.028-0.156,0l-2.52,1.485
				C755.563,949.507,755.562,949.655,755.664,949.716z"/>
			<g>
				<path style="fill:#8CB8DB;" d="M745.845,955.407l2.673,1.603c0.082,0.049,0.185,0.05,0.268,0.001l2.831-1.61
					c0.087-0.051,0.086-0.176-0.001-0.226l-2.911-1.64c-0.052-0.029-0.115-0.029-0.167,0l-2.691,1.585
					C745.737,955.184,745.736,955.342,745.845,955.407z"/>
				<path style="fill:#8CB8DB;" d="M741.31,952.361l2.673,1.603c0.082,0.049,0.185,0.049,0.268,0.001l2.831-1.61
					c0.087-0.051,0.086-0.176-0.001-0.226l-2.911-1.64c-0.052-0.029-0.115-0.029-0.167,0l-2.691,1.585
					C741.202,952.138,741.201,952.296,741.31,952.361z"/>
				<path style="fill:#8CB8DB;" d="M751.017,952.465l2.504,1.501c0.077,0.046,0.173,0.046,0.251,0.001l2.651-1.508
					c0.081-0.048,0.081-0.165-0.001-0.212l-2.726-1.536c-0.048-0.028-0.108-0.027-0.156,0l-2.52,1.485
					C750.916,952.256,750.914,952.404,751.017,952.465z"/>
				<path style="fill:#8CB8DB;" d="M746.769,949.612l2.504,1.501c0.077,0.046,0.173,0.046,0.251,0.001l2.651-1.508
					c0.081-0.048,0.081-0.165-0.001-0.212l-2.726-1.536c-0.048-0.028-0.108-0.028-0.156,0l-2.521,1.485
					C746.668,949.403,746.667,949.551,746.769,949.612z"/>
				<path style="fill:#8CB8DB;" d="M742.272,947.075l2.504,1.501c0.077,0.046,0.173,0.046,0.251,0.001l2.651-1.508
					c0.081-0.048,0.081-0.165-0.001-0.212l-2.726-1.536c-0.048-0.028-0.108-0.028-0.156,0l-2.521,1.485
					C742.17,946.866,742.169,947.014,742.272,947.075z"/>
				<path style="fill:#8CB8DB;" d="M738.023,944.222l2.504,1.501c0.077,0.046,0.173,0.046,0.251,0.001l2.651-1.508
					c0.082-0.047,0.081-0.165-0.001-0.212l-2.726-1.536c-0.048-0.028-0.108-0.028-0.156,0l-2.52,1.485
					C737.922,944.013,737.921,944.161,738.023,944.222z"/>
				<path style="fill:#8CB8DB;" d="M733.955,941.352l2.504,1.501c0.077,0.046,0.173,0.046,0.251,0.001l2.651-1.508
					c0.081-0.048,0.081-0.165-0.001-0.212l-2.727-1.536c-0.048-0.028-0.108-0.027-0.156,0l-2.521,1.485
					C733.854,941.143,733.852,941.292,733.955,941.352z"/>
				<path style="fill:#8CB8DB;" d="M729.707,938.499l2.504,1.501c0.077,0.046,0.173,0.046,0.251,0.001l2.651-1.508
					c0.081-0.047,0.081-0.165-0.001-0.212l-2.726-1.536c-0.048-0.028-0.108-0.028-0.156,0l-2.521,1.485
					C729.606,938.291,729.604,938.438,729.707,938.499z"/>
				<path style="fill:#8CB8DB;" d="M751.416,946.862l2.504,1.501c0.077,0.046,0.173,0.046,0.251,0.001l2.651-1.508
					c0.081-0.048,0.081-0.165-0.001-0.212l-2.726-1.536c-0.048-0.027-0.108-0.027-0.156,0l-2.52,1.485
					C751.315,946.654,751.314,946.802,751.416,946.862z"/>
				<path style="fill:#8CB8DB;" d="M746.919,944.326l2.504,1.501c0.077,0.046,0.173,0.046,0.251,0.001l2.651-1.508
					c0.081-0.048,0.081-0.165-0.001-0.212l-2.726-1.536c-0.048-0.027-0.108-0.027-0.156,0.001l-2.52,1.485
					C746.817,944.117,746.816,944.265,746.919,944.326z"/>
				<path style="fill:#8CB8DB;" d="M742.67,941.472l2.504,1.501c0.077,0.046,0.173,0.046,0.251,0.001l2.651-1.508
					c0.081-0.048,0.081-0.165-0.001-0.212l-2.726-1.536c-0.049-0.028-0.108-0.028-0.156,0l-2.52,1.485
					C742.569,941.263,742.568,941.411,742.67,941.472z"/>
				<path style="fill:#8CB8DB;" d="M738.602,938.603l2.504,1.501c0.077,0.046,0.173,0.046,0.251,0.001l2.651-1.508
					c0.081-0.048,0.081-0.165-0.001-0.212l-2.726-1.536c-0.048-0.027-0.108-0.027-0.156,0l-2.52,1.485
					C738.501,938.394,738.5,938.542,738.602,938.603z"/>
				<path style="fill:#8CB8DB;" d="M734.354,935.75l2.504,1.501c0.077,0.046,0.173,0.046,0.251,0.001l2.651-1.508
					c0.081-0.048,0.081-0.165-0.001-0.212l-2.726-1.536c-0.048-0.028-0.108-0.028-0.156,0l-2.52,1.485
					C734.253,935.541,734.252,935.689,734.354,935.75z"/>
				<path style="fill:#8CB8DB;" d="M756.256,943.947l2.504,1.501c0.077,0.046,0.173,0.046,0.251,0.001l2.651-1.508
					c0.081-0.048,0.081-0.165-0.001-0.212l-2.726-1.536c-0.049-0.028-0.108-0.027-0.156,0l-2.52,1.485
					C756.155,943.738,756.154,943.886,756.256,943.947z"/>
				<path style="fill:#8CB8DB;" d="M751.759,941.41l2.504,1.501c0.077,0.046,0.173,0.046,0.251,0.001l2.651-1.508
					c0.081-0.048,0.081-0.165-0.001-0.212l-2.726-1.536c-0.048-0.027-0.108-0.027-0.156,0.001l-2.52,1.485
					C751.657,941.201,751.656,941.349,751.759,941.41z"/>
				<path style="fill:#8CB8DB;" d="M747.511,938.557l2.504,1.501c0.077,0.046,0.173,0.046,0.251,0.001l2.651-1.508
					c0.081-0.048,0.081-0.165-0.001-0.212l-2.726-1.536c-0.048-0.028-0.108-0.028-0.156,0l-2.52,1.485
					C747.409,938.348,747.408,938.496,747.511,938.557z"/>
				<path style="fill:#8CB8DB;" d="M743.442,935.688l2.504,1.501c0.077,0.046,0.173,0.046,0.251,0.001l2.651-1.508
					c0.081-0.048,0.081-0.165-0.001-0.212l-2.726-1.536c-0.049-0.027-0.108-0.027-0.156,0l-2.521,1.485
					C743.341,935.479,743.34,935.627,743.442,935.688z"/>
				<path style="fill:#8CB8DB;" d="M744.923,930.182l4.584,2.748c0.141,0.084,0.317,0.085,0.459,0.002l9.91-5.648
					c0.149-0.087,0.148-0.302-0.002-0.387l-4.991-2.812c-0.089-0.051-0.198-0.05-0.286,0.001l-9.67,5.606
					C744.737,929.8,744.735,930.071,744.923,930.182z"/>
				<path style="fill:#8CB8DB;" d="M751.08,934.656l4.584,2.748c0.141,0.084,0.317,0.085,0.459,0.002l9.91-5.648
					c0.149-0.087,0.148-0.302-0.002-0.388l-4.991-2.812c-0.089-0.051-0.198-0.05-0.286,0.001l-9.671,5.606
					C750.895,934.273,750.893,934.544,751.08,934.656z"/>
				<path style="fill:#8CB8DB;" d="M739.194,932.835l2.504,1.501c0.077,0.046,0.173,0.046,0.251,0.001l2.651-1.508
					c0.081-0.048,0.081-0.165-0.001-0.212l-2.726-1.536c-0.048-0.028-0.108-0.028-0.156,0l-2.52,1.485
					C739.093,932.626,739.092,932.774,739.194,932.835z"/>
				<path style="fill:#8CB8DB;" d="M756.256,923.267l2.504,1.501c0.077,0.046,0.173,0.046,0.251,0.001l2.651-1.508
					c0.081-0.048,0.081-0.165-0.001-0.212l-2.726-1.536c-0.049-0.028-0.108-0.027-0.156,0l-2.52,1.485
					C756.155,923.058,756.154,923.206,756.256,923.267z"/>
				<path style="fill:#8CB8DB;" d="M732.892,947.183l6.439,3.877c0.082,0.049,0.185,0.049,0.268,0.001l2.831-1.61
					c0.087-0.051,0.086-0.176-0.001-0.226l-6.677-3.914c-0.052-0.029-0.115-0.029-0.167,0l-2.691,1.585
					C732.784,946.96,732.783,947.118,732.892,947.183z"/>
				<path style="fill:#8CB8DB;" d="M724.485,941.897l6.439,3.877c0.082,0.049,0.185,0.049,0.268,0.001l2.831-1.61
					c0.087-0.051,0.086-0.176-0.001-0.226l-6.677-3.914c-0.052-0.029-0.115-0.029-0.167,0.001l-2.691,1.585
					C724.377,941.674,724.375,941.832,724.485,941.897z"/>
			</g>
		</g>
		<path style="fill:#6095C7;" d="M739.434,914.933l7.745,4.633c0.58,0.347,1.302,0.349,1.884,0.007l24.956-14.661l-9.327-5.346
			c-0.129,0.001-0.231,0.002-0.36,0.002l-24.894,14.747C739.202,914.454,739.2,914.793,739.434,914.933z"/>
		<path style="fill:#63A1D3;" d="M752.32,968.419l102.047-58.657l18.659-77.449c0.46-1.91-1.524-3.486-3.28-2.605l-92.951,46.6
			c-2.467,1.237-4.252,3.512-4.866,6.202L752.32,968.419z"/>
		
			<linearGradient id="SVGID_00000149343959730702207920000002655024513310814126_" gradientUnits="userSpaceOnUse" x1="806.0709" y1="837.7393" x2="830.6998" y2="1014.381">
			<stop  offset="0" style="stop-color:#FFFFFF"/>
			<stop  offset="0.1618" style="stop-color:#EDF5FB"/>
			<stop  offset="0.4853" style="stop-color:#BEDCF0"/>
			<stop  offset="0.5807" style="stop-color:#AFD4EC"/>
		</linearGradient>
		<path style="fill:url(#SVGID_00000149343959730702207920000002655024513310814126_);" d="M754.454,969.048l102.047-58.657
			l18.659-77.449c0.46-1.91-1.524-3.486-3.28-2.605l-92.951,46.6c-2.467,1.237-4.252,3.512-4.866,6.202L754.454,969.048z"/>
		<g style="opacity:0.47;">
			<path style="fill:#5B91C5;" d="M821.477,888.872c3.675-2.122,6.665-0.418,6.677,3.808c0.012,4.223-2.959,9.369-6.634,11.491
				c-3.678,2.123-6.668,0.419-6.68-3.804C814.829,896.141,817.799,890.995,821.477,888.872z"/>
		</g>
	</g>
</g>
</svg>
